<svg xmlns="http://www.w3.org/2000/svg" width="566.228" height="194.224" viewBox="0 0 566.228 194.224">
  <path id="パス_1091" data-name="パス 1091" d="M4.48,36.64a14.5,14.5,0,0,1-.16-2.56V31.76a9.65,9.65,0,0,1,.32-2.32,3.463,3.463,0,0,0,.08-1.28,11.7,11.7,0,0,1-.08-1.44,4.958,4.958,0,0,1,.32-2.08,12.635,12.635,0,0,0,.48-1.92l.32-1.92a5.949,5.949,0,0,0,.4-1.68,3.924,3.924,0,0,1,.56-1.68,10.073,10.073,0,0,1,.8-3.2,14.425,14.425,0,0,0,.96-3.04A18.843,18.843,0,0,1,9.2,9.36a18.843,18.843,0,0,0,.72-1.84,3.691,3.691,0,0,0,.48-1.04,3.691,3.691,0,0,1,.48-1.04q.32-.8.56-1.44A13.324,13.324,0,0,1,12,2.72l.64-1.28A5.711,5.711,0,0,0,13.12,0a5.462,5.462,0,0,1,1.12-2.24,6.4,6.4,0,0,0,.96-2.24,11.767,11.767,0,0,0,.48-1.28q.8-1.28,1.52-2.64t1.52-2.64a25.541,25.541,0,0,1,1.6-2.72,25.541,25.541,0,0,1,1.6-2.72,5.766,5.766,0,0,0,1.2-1.68A13.167,13.167,0,0,1,24.16-20q.32-.64.64-1.2a11.7,11.7,0,0,1,.8-1.2,8.934,8.934,0,0,1,.72-1.2,8.935,8.935,0,0,0,.72-1.2,5.756,5.756,0,0,1,.72-.88,5.756,5.756,0,0,0,.72-.88,1.289,1.289,0,0,0,.16-.56,1.289,1.289,0,0,1,.16-.56,11.576,11.576,0,0,0,2.08-2.8q.8-1.52,1.76-3.12a7.445,7.445,0,0,1,1.28-1.92,1.576,1.576,0,0,0,.4-.56,1.576,1.576,0,0,1,.4-.56,8.271,8.271,0,0,1,.8-1.52,6.083,6.083,0,0,1,1.28-1.36,2.519,2.519,0,0,0,.64-.96,6.113,6.113,0,0,1,.88-1.28,6.113,6.113,0,0,0,.88-1.28,17.218,17.218,0,0,0,1.44-2,17.218,17.218,0,0,1,1.44-2q.8-1.12,1.6-2.16t1.6-2.16L47.2-53.6l1.92-2.24a11.187,11.187,0,0,1,1.04-1.2,3.993,3.993,0,0,0,.88-1.36,3.719,3.719,0,0,1,.72-.56,3.72,3.72,0,0,0,.72-.56,7.873,7.873,0,0,0,1.2-1.12,3.072,3.072,0,0,0,.72-1.44q.8-.8,1.6-1.68t1.6-1.68l.96-.64a5.244,5.244,0,0,0,.8-.64l.64-.64a5.244,5.244,0,0,1,.8-.64,2.008,2.008,0,0,0,.64-.56,8.728,8.728,0,0,1,.64-.72q.32-.96.96-1.12l.32-.32a4.37,4.37,0,0,1,1.36-1.6q.88-.64,1.84-1.28l.56-.56.56-.56q1.12-1.12,2.24-2.16a15.924,15.924,0,0,1,2.4-1.84,2.507,2.507,0,0,0,.64-.48,29.279,29.279,0,0,1,5.76-4.96q.8-.8,1.68-1.52t1.68-1.52a9.734,9.734,0,0,0,1.44-1.12q1.76-1.12,3.36-2.24t3.36-2.4l.96-.64a5.244,5.244,0,0,0,.8-.64,10.463,10.463,0,0,0,1.12-.64,2.857,2.857,0,0,0,.8-.8,24.136,24.136,0,0,1,2.32-1.76q1.2-.8,2.48-1.6.48-.32,1.04-.72t1.04-.72q.8-.64,1.6-1.2a7.947,7.947,0,0,1,1.6-.88,16.722,16.722,0,0,0,2.56-2.08,4.852,4.852,0,0,0,2.56-1.28,1.732,1.732,0,0,1,.8-.64,10.973,10.973,0,0,0,2.24-1.12,10.973,10.973,0,0,1,2.24-1.12,18.9,18.9,0,0,0,2.08-1.04q.96-.56,1.92-1.2a18.788,18.788,0,0,0,1.76-.96,2.621,2.621,0,0,1,1.6-.96,6.961,6.961,0,0,1,2.32-1.36,8.746,8.746,0,0,0,2.32-1.2q2.4-1.44,4.64-2.56,1.6-.8,3.12-1.44t3.12-1.44a2.275,2.275,0,0,0,1.28-.32,10.463,10.463,0,0,1,1.12-.64q0-.16.32-.16a8.534,8.534,0,0,0,2.24-.88,8.534,8.534,0,0,1,2.24-.88,13.133,13.133,0,0,0,2.32-.8q1.04-.48,2.16-.96,1.76-.64,3.28-1.2t3.28-1.04a4.586,4.586,0,0,1,2.08-.48,12.636,12.636,0,0,0,1.92-.48,4.491,4.491,0,0,1,2.08-.16,7.384,7.384,0,0,0,1.04-.08,3.113,3.113,0,0,1,1.2.08,10.916,10.916,0,0,0,2.16.4,6.817,6.817,0,0,1,2.16.56,1.114,1.114,0,0,1,.48.08,1.114,1.114,0,0,0,.48.08,19.241,19.241,0,0,1,2.8,3.12,8.763,8.763,0,0,1,1.52,3.92,7.1,7.1,0,0,1,1.28,3.04,1.773,1.773,0,0,0,.08.56,1.772,1.772,0,0,1,.08.56,4.5,4.5,0,0,0,.08.88,1.09,1.09,0,0,1-.08.72,7.118,7.118,0,0,0-.16,1.36v1.36a7.582,7.582,0,0,1-1.12,4.16,2.008,2.008,0,0,0-.48.8,2.008,2.008,0,0,1-.48.8l-1.44,2.4q-1.6,2.24-3.2,4.96a10.051,10.051,0,0,1-1.04,1.68q-.56.72-1.2,1.52a8.632,8.632,0,0,0-1.36,1.76,8.632,8.632,0,0,1-1.36,1.76,14.534,14.534,0,0,0-1.2,1.76,8.633,8.633,0,0,1-1.36,1.76,8.244,8.244,0,0,0-.88,1.04,6.472,6.472,0,0,0-.72,1.36l-.64.32a2.507,2.507,0,0,0-.64.48,4.271,4.271,0,0,1-.56,1.44A15.562,15.562,0,0,1,156-82.88l-4.32,5.76a7.757,7.757,0,0,1-.96,1.12,8.728,8.728,0,0,0-.64.72,8.728,8.728,0,0,1-.64.72q-.16.16-.16.24t-.16.24A16.49,16.49,0,0,1,147.36-72q-.96.96-1.76,1.92a3.88,3.88,0,0,0-.48.56,3.877,3.877,0,0,1-.48.56A3.723,3.723,0,0,1,144-68l-2.56,2.56q-1.28,1.28-2.72,2.56v.16a9.46,9.46,0,0,0-1.84,1.68q-.72.88-1.52,1.68l-1.28,1.28a7.438,7.438,0,0,1-1.44,1.12l-.64.64-.64.64-4.8,4.8a9.534,9.534,0,0,1-1.28.96,32.786,32.786,0,0,0-3.52,3.04,7.781,7.781,0,0,1-3.04,2.24,6.45,6.45,0,0,0-1.04-.56q-.56-.24-1.36-.56-.32-.96-.64-1.76a1.058,1.058,0,0,1,.16-.96.8.8,0,0,0,0-.96,8.78,8.78,0,0,1-1.12.48,4.5,4.5,0,0,1-.48-3.84,3.934,3.934,0,0,1,.48-3.84l.64-1.28a2.023,2.023,0,0,1,1.12-.96q1.28-1.44,2.48-2.88t2.32-2.88q.8-.96,1.6-2a11.548,11.548,0,0,1,1.76-1.84,4.554,4.554,0,0,0,.8-.96,2.023,2.023,0,0,1,.96-1.12l.48-.48a6.161,6.161,0,0,1,1.2-1.44q.72-.64,1.52-1.44A19.632,19.632,0,0,0,131.36-76a6.007,6.007,0,0,1,.64-.56,6.007,6.007,0,0,0,.64-.56,7.6,7.6,0,0,0,1.6-1.92,3.993,3.993,0,0,1,.88-1.36,7.015,7.015,0,0,0,1.04-1.36l1.44-1.44a7.438,7.438,0,0,0,1.12-1.44,6.3,6.3,0,0,1,2.56-2.24,8.061,8.061,0,0,1,1.92-2.56,5.412,5.412,0,0,0,1.28-1.44,8.412,8.412,0,0,1,1.28-1.6.513.513,0,0,0,.32-.48.922.922,0,0,1,.32-.64,17.981,17.981,0,0,0,1.36-1.84,9.887,9.887,0,0,1,1.36-1.68q.96-1.12,1.84-2.24a27.3,27.3,0,0,0,1.68-2.4l.16-.16a7.438,7.438,0,0,0,1.12-1.44l.96-1.6a3.7,3.7,0,0,1,.48-.8,8.8,8.8,0,0,0,1.84-2.16,29.151,29.151,0,0,1,1.68-2.48q-.16-.16-.16-.24t-.32-.4q-.64.32-1.2.64a11.01,11.01,0,0,1-1.36.64,6.732,6.732,0,0,0-1.6.16q-.32,0-.32.16a6.4,6.4,0,0,1-2.24.96,31.311,31.311,0,0,0-4.32,1.92q-.8.32-1.44.64t-1.44.64q-.8.32-1.68.72a18.844,18.844,0,0,1-1.84.72,9.976,9.976,0,0,0-2.32.88q-1.04.56-2.16,1.2a13.6,13.6,0,0,0-3.52,1.76,35.476,35.476,0,0,1-3.36,2.08,10.464,10.464,0,0,1-1.12.64q-.64.32-1.44.8-.8.64-1.68,1.28a15.411,15.411,0,0,1-2.16,1.28,14.4,14.4,0,0,0-2.08,1.44q-.96.8-1.76,1.6-1.6.8-2.96,1.6t-2.8,1.6q-.32-.48-.16-.64.32-.48.72-1.04t.72-1.04a1.266,1.266,0,0,0-.8.16A15.771,15.771,0,0,0,112-88.96a9.6,9.6,0,0,0-2.08,2.08,2.63,2.63,0,0,0-.64.08,2.63,2.63,0,0,1-.64.08,3.11,3.11,0,0,0-.64,1.6.927.927,0,0,0-.64.16,11.254,11.254,0,0,0-.96.72,3.182,3.182,0,0,0-.8,1.04,1.266,1.266,0,0,0,.8-.16l.88-.88a5.757,5.757,0,0,0,.72-.88q1.12-.32,1.12-.48a6.153,6.153,0,0,1,1.36-1.04q.72-.4,1.52-.88a11.768,11.768,0,0,0,1.28.48,3.7,3.7,0,0,1-.48.8,3.7,3.7,0,0,0-.8.48,9.7,9.7,0,0,0-2.88,1.92,7.872,7.872,0,0,1-1.12,1.2q-.64.56-1.28,1.04a10.974,10.974,0,0,0-1.68,1.36,18.427,18.427,0,0,1-1.52,1.36q-.96.8-1.84,1.52T99.84-76q-.8.64-1.52,1.28T96.8-73.28a10.444,10.444,0,0,0-1.12.96l-.96.96q-1.28,1.28-2.64,2.56t-2.64,2.56q-.32.32-.8.72t-.8.72a2.507,2.507,0,0,0-.64.48,1.863,1.863,0,0,1-.8.88,1.863,1.863,0,0,0-.8.88,2.857,2.857,0,0,1-.8.8,5.243,5.243,0,0,0-.8.64.866.866,0,0,0-.4.32.866.866,0,0,1-.4.32q-.8.96-1.68,1.84l-1.68,1.68q-.48.64-.96,1.2a9.994,9.994,0,0,0-.96,1.36,31.764,31.764,0,0,0-4.64,4.64,2.507,2.507,0,0,0-.48.64,2.507,2.507,0,0,1-.48.64,2.857,2.857,0,0,0-.8.8,4.82,4.82,0,0,1-.8,1.36q-.48.56-1.12,1.2a20.9,20.9,0,0,0-2.88,3.52,4.271,4.271,0,0,1-.8,1.12L64-38.56q-.16.32-.32.32a.461.461,0,0,0-.32.16,1.353,1.353,0,0,0-.56.56q-.08.24-.24,1.04a27.3,27.3,0,0,1-1.68,2.4,25.189,25.189,0,0,1-2,2.24,4.553,4.553,0,0,0-.8.96q-1.12,1.6-2.08,3.12t-2.08,3.12q-.64,1.12-1.28,2.16t-1.28,2a3.432,3.432,0,0,1-.64.8,14.661,14.661,0,0,0-2.16,2.72q-.88,1.44-1.68,3.04l-.64.96L45.6-12a7.309,7.309,0,0,0-1.04,1.28q-.4.64-.88,1.44a26.835,26.835,0,0,1-1.6,2.56q-.48.64-.88,1.28A9.064,9.064,0,0,0,40.48-4a10.247,10.247,0,0,1-.88,1.68q-.56.88-1.04,1.68Q37.92.48,37.28,1.44A20.921,20.921,0,0,0,36,3.68a8.934,8.934,0,0,1-.72,1.2,8.933,8.933,0,0,0-.72,1.2,11.008,11.008,0,0,1-.64,1.36q-.32.56-.64,1.2a20.5,20.5,0,0,1-1.04,1.84,8.317,8.317,0,0,0-.88,1.84,2.507,2.507,0,0,1-.48.64.922.922,0,0,0-.32.64,9.311,9.311,0,0,1-.4,1.44q-.24.64-.56,1.44-.64,1.76-1.28,3.6t-1.44,4.08a6.28,6.28,0,0,1-.16,1.36,9.889,9.889,0,0,1-.48,1.52,7.583,7.583,0,0,0-.64,2.72v.64a11.158,11.158,0,0,0-.64,3.84,6.991,6.991,0,0,1-.16,1.52,6.991,6.991,0,0,0-.16,1.52v1.04a1.838,1.838,0,0,0,.32,1.04.71.71,0,0,0,.08.32,1.114,1.114,0,0,1,.08.48,9.872,9.872,0,0,0,.4,2.8q.4,1.36.72,2.64a1.781,1.781,0,0,1,.16.8,1.085,1.085,0,0,0,.32.8,2.136,2.136,0,0,0,.4.56l.56.56q.8.16,1.68.4a3.621,3.621,0,0,0,1.68.08,8.551,8.551,0,0,1,1.68-.16,11.2,11.2,0,0,0,1.84-.16,2.456,2.456,0,0,1,.96-.32,6.54,6.54,0,0,0,2.08-.32l1.92-.64q.96-.32,2-.72t2-.88q.64-.32,1.2-.64t1.2-.64a4.39,4.39,0,0,1,.56-.24,1.576,1.576,0,0,0,.56-.4,1.085,1.085,0,0,0,.8-.32q1.12-.8,2.32-1.52a17.028,17.028,0,0,0,2.32-1.68q1.28-.96,2.48-1.84t2.48-1.68a6.008,6.008,0,0,1,.64-.56,6.008,6.008,0,0,0,.64-.56,19.86,19.86,0,0,0,2.48-1.84q1.2-1.04,2.32-2.16a2.277,2.277,0,0,0,.4-.48.866.866,0,0,1,.4-.32,10.355,10.355,0,0,0,2.72-1.92,22.373,22.373,0,0,1,2.4-2.08,2.277,2.277,0,0,1,.48-.4,1.253,1.253,0,0,0,.32-.24q.8-.64,1.6-1.2a12.063,12.063,0,0,0,1.6-1.36,8.728,8.728,0,0,1,.72-.64,8.727,8.727,0,0,0,.72-.64q1.12-.8,2.08-1.6a20.348,20.348,0,0,1,2.24-1.6q.64-.8,1.36-1.6A8.848,8.848,0,0,1,82.24,16a3.432,3.432,0,0,0,.8-.64q1.28-1.28,2.64-2.4t2.8-2.4a24.385,24.385,0,0,1,2.88-2.4A23.371,23.371,0,0,1,96.8,2.88a1.732,1.732,0,0,0,.8-.64A10.186,10.186,0,0,1,99.36.32q.96-.8,1.92-1.76.8-.8,1.76-1.6l1.92-1.6q1.28-1.28,2.56-2.64t2.56-2.64a5.756,5.756,0,0,0,.88-.72,5.756,5.756,0,0,1,.88-.72,17.457,17.457,0,0,0,1.44-1.28l1.44-1.44q3.84-4,7.84-7.84a7.241,7.241,0,0,1,1.28-1.28q.64-.48,1.44-1.12a3.546,3.546,0,0,0,1.12-.16l.48.96h.8a1.621,1.621,0,0,1,1.12,1.44q-.16.48-.8,2.08a.843.843,0,0,0,.72-.32.692.692,0,0,1,.56-.32.256.256,0,0,1,.24.16q.08.16.56,1.28a6.23,6.23,0,0,0-.4,1.84,3.532,3.532,0,0,1-.88,2q.64.16.88-.24a.675.675,0,0,1,.56-.4q.48.48,0,.8a9.887,9.887,0,0,0-1.36,1.68A5.159,5.159,0,0,1,127.36-12l-.96.96a10.444,10.444,0,0,0-.96,1.12,3.175,3.175,0,0,1-.96,1.12,5.572,5.572,0,0,0-1.12,1.12L111.84,3.84q-.96.96-2.08,1.92t-2.4,2.08V8q0,.16-.08.16t-.08.16a5.653,5.653,0,0,0-1.36,1.12q-.56.64-1.2,1.44a1.136,1.136,0,0,1-.96.16q-.16-.32.08-.4a.729.729,0,0,0,.4-.4,1.254,1.254,0,0,0-.32-.24,1.254,1.254,0,0,1-.32-.24,4.39,4.39,0,0,1-.56.24,1,1,0,0,0-.4.24,20.776,20.776,0,0,1-1.76,1.92,3.7,3.7,0,0,0-.48.8.141.141,0,0,1,.16.16,1.289,1.289,0,0,1,.56-.16,1.289,1.289,0,0,0,.56-.16,7.757,7.757,0,0,0,.96-1.12q.32.64.32.48a3.723,3.723,0,0,1-.64.96,5.243,5.243,0,0,0-.8.64l-.64.64a2.707,2.707,0,0,1-1.12,1.12,5.506,5.506,0,0,0-1.92,1.92,1.732,1.732,0,0,1-.64.8,7.8,7.8,0,0,0-1.92,1.52q-.8.88-1.6,1.68a5.571,5.571,0,0,0-1.12,1.12,2.912,2.912,0,0,1-1.28.96l-.48.48a8.254,8.254,0,0,1-1.6,2,21.975,21.975,0,0,1-2.08,1.68l-.64.64-1.04,1.04A7.015,7.015,0,0,1,84,30.4l-.72.72-.72.72a19.484,19.484,0,0,1-1.6,1.44q-.8.64-1.76,1.28a5.078,5.078,0,0,0,.32-1.44,1.781,1.781,0,0,1-.8-.16,5.23,5.23,0,0,1-.32.56,5.23,5.23,0,0,0-.32.56q-.64.32-.48.8a.739.739,0,0,0,.48-.8,4.39,4.39,0,0,0,.56.24,4.39,4.39,0,0,1,.56.24,5.626,5.626,0,0,1-1.28,1.68q-.8.72-1.6,1.36-.8.8-1.6,1.52t-1.6,1.36a21.606,21.606,0,0,0-2.32,2,21.607,21.607,0,0,1-2.32,2q-.8.64-1.6,1.36t-1.6,1.52a11.186,11.186,0,0,0-1.2,1.04,11.186,11.186,0,0,1-1.2,1.04,2.507,2.507,0,0,0-.64.48,2.706,2.706,0,0,1-1.12,1.12L59.84,52a5.572,5.572,0,0,0-1.12,1.12.141.141,0,0,0-.16.16,11.2,11.2,0,0,0-1.6.8,6.008,6.008,0,0,1-.64.56,6.007,6.007,0,0,0-.64.56q-.96.64-1.84,1.28T52,57.76a1.991,1.991,0,0,1-.88.48,3.691,3.691,0,0,0-1.04.48l-.72.72a9.815,9.815,0,0,1-1.04.88,31.541,31.541,0,0,1-4.88,2.24q-2.64.96-5.36,2.24-.8-.16-2.08-.48a1.394,1.394,0,0,1-.72.4,2.524,2.524,0,0,0-.88.4,10.519,10.519,0,0,1-7.36-2.08A7.015,7.015,0,0,1,25.68,62a7.015,7.015,0,0,0-1.36-1.04,4.271,4.271,0,0,0-1.12-.8,10.871,10.871,0,0,1-4.32-3.52,2.277,2.277,0,0,0-.48-.4.866.866,0,0,1-.32-.4,5.641,5.641,0,0,0-1.44-1.52,13.916,13.916,0,0,0-1.76-1.04,16.755,16.755,0,0,1-4.32-3.2,19.815,19.815,0,0,1-2-2.72q-.88-1.44-1.68-2.88a.922.922,0,0,1-.32-.64A41.119,41.119,0,0,1,4.48,36.64ZM110.72,3.36h0Zm-3.36,2.72a1.046,1.046,0,0,1-.48.48q-.32.16,0,.64a18.281,18.281,0,0,1,1.76-1.6q-.16,0-.32-.8l-.48.72A3.879,3.879,0,0,1,107.36,6.08Zm-1.6,1.44a1.255,1.255,0,0,0-.96,1.28,1.255,1.255,0,0,0,1.28-.96V7.52Zm-6.88,7.04q0,.16.16,0V14.4h-.16Zm-1.76,1.6q-.32.32-.4.32t-.24.16a.461.461,0,0,0,.32.16Zm27.2-73.92q-.64,0-.64.8Q124.32-57.28,124.32-57.76Zm.48,6.08a.461.461,0,0,1-.32.16q-.32.32-.32.48-.32.32-.48.32a5.353,5.353,0,0,0-2.4,2.24,2.688,2.688,0,0,0,1.04-.48,10.564,10.564,0,0,0,1.36-1.6l.48-.48.32-.32Zm0-6.4a2.857,2.857,0,0,0,.8-.8A1.028,1.028,0,0,0,124.8-58.08Zm.96,5.12q.64.32.48-.48Zm38.4-43.52v0h0ZM140.48-82.4q-.16.16-.16.24t-.16.24l.32-.32.16-.16ZM129.76-63.52v.48a1.538,1.538,0,0,0,.96-1.44,1.228,1.228,0,0,1,.48-.16.461.461,0,0,0,.32-.16l1.52-1.52,1.52-1.52a9.156,9.156,0,0,1,1.6-1.76q.8-.96,1.76-1.92l1.92-1.92a9.371,9.371,0,0,0,1.12-1.28l1.92-2.24q.96-1.12,2.08-2.4a20.537,20.537,0,0,0,1.76-2,20.54,20.54,0,0,1,1.76-2q.48-.64.96-1.2t1.12-1.2a8.406,8.406,0,0,0,.8-1.28q.32-.64.8-1.44a20.072,20.072,0,0,0,2-2.32q.88-1.2,1.84-2.48a14.557,14.557,0,0,0,1.12-1.6,14.56,14.56,0,0,1,1.12-1.6v-.64l-.64.64-.64.64a9.888,9.888,0,0,1-1.2,1.84q-.72.88-1.36,1.84-.96,1.28-2,2.48t-2,2.48a1.732,1.732,0,0,0-.64.8A19.831,19.831,0,0,1,148-84l-1.92,2.24a31.954,31.954,0,0,0-2.48,2.8,21.868,21.868,0,0,1-2.64,2.8l-.48.48q-1.44,1.92-3.04,3.68t-3.36,3.52a26.737,26.737,0,0,0-3.36,4Zm-1.12,1.12q0-.16-.32.8l.64-.64A.461.461,0,0,1,128.64-62.4Zm-1.92,2.56a.283.283,0,0,0,.32-.32Q126.08-60.48,126.72-59.84Zm25.6-20.8a4.044,4.044,0,0,0,1.92-2.72,3.865,3.865,0,0,0-1.92,2.72q-.48.48-.48.32-1.44,1.6-2.8,3.04t-2.64,3.04a6.008,6.008,0,0,0-.56.64,6.006,6.006,0,0,1-.56.64,1.535,1.535,0,0,0-.48,1.12q-.8.64-1.12.96-2.72,2.72-5.2,5.28t-5.2,5.28l-.96.96a.461.461,0,0,0-.16.32.461.461,0,0,1-.16.32,2.531,2.531,0,0,0-1.92,2.08,2.154,2.154,0,0,0-1.44.8,12.014,12.014,0,0,1-1.12,1.28q-.16,0-.08.16a.261.261,0,0,1-.08.32q.48,0,.48-.16l1.2-1.2a11.185,11.185,0,0,0,1.04-1.2.927.927,0,0,0,.64-.16,18.37,18.37,0,0,1,1.44-1.76.543.543,0,0,1,.4-.16q.24,0,.4-.32,1.12-.96,2.16-2a13.044,13.044,0,0,0,1.84-2.32,1.253,1.253,0,0,1,.32-.24,1.254,1.254,0,0,0,.32-.24l2.24-1.92A9.7,9.7,0,0,0,141.76-68a4.2,4.2,0,0,1,.4-.64,6.006,6.006,0,0,1,.56-.64,15.978,15.978,0,0,0,1.6-1.44,1.535,1.535,0,0,0,.48-1.12h.16a21.8,21.8,0,0,0,3.84-3.84q1.6-2.08,3.36-4.32A.927.927,0,0,0,152.32-80.64Zm10.56-14.4.16-.16h-.16Zm-1.92,2.88a3.563,3.563,0,0,0-1.12.88q-.48.56-.96,1.2a6.351,6.351,0,0,1-1.92,2.24,11.694,11.694,0,0,0-.8,1.2,4.924,4.924,0,0,1-.8,1.04,4.9,4.9,0,0,0-.48.88,2.349,2.349,0,0,0-.16.88,3.14,3.14,0,0,0,1.44-1.44,3.5,3.5,0,0,1,.72-.8,8.729,8.729,0,0,0,.72-.64,2.029,2.029,0,0,1,.48-.96,9.993,9.993,0,0,1,.96-1.36q.48-.56.96-1.2a2.766,2.766,0,0,0,.96-1.92.633.633,0,0,0,.4-.08.326.326,0,0,1,.24-.08q.32-.64-.16-.8Q160.96-92.96,160.96-92.16Zm-32-7.84a.922.922,0,0,0,.64.32,1.42,1.42,0,0,1,.64.16,2.759,2.759,0,0,0,.4-.8,1.212,1.212,0,0,1,.56-.64v-.32h-.96Zm-25.6,18.4q-.48.48-.16.64a3.422,3.422,0,0,0,1.04-.56q.24-.24,1.04-1.2a1.63,1.63,0,0,0-1.2.4ZM30.4,11.68v-.32a5.244,5.244,0,0,1-.8.64Q30.4,11.84,30.4,11.68Zm16.48-37.6a1.446,1.446,0,0,0,.8-1.28,2.277,2.277,0,0,1,.48-.4,2.277,2.277,0,0,0,.48-.4v-.64q-.96.8-.96,1.44a1.446,1.446,0,0,0-.8,1.28.985.985,0,0,0-.8,1.12A.985.985,0,0,0,46.88-25.92Zm2.88,5.12v-.32q0-.16-.32-.48a2.619,2.619,0,0,0-.8,1.92A5.572,5.572,0,0,0,49.76-20.8Zm6.56-17.76a19.859,19.859,0,0,1,1.84-2.48A19.859,19.859,0,0,0,60-43.52a.461.461,0,0,0,.16-.32,1.228,1.228,0,0,1,.16-.48l-.16.16a14.7,14.7,0,0,0-2,2.08q-.88,1.12-1.84,2.24a3.756,3.756,0,0,1-.8,1.28L54.4-37.44a3.521,3.521,0,0,0-.8,1.92.652.652,0,0,0,.48-.16l.48-.96a4.553,4.553,0,0,0,.8-.96,3.878,3.878,0,0,1,.56-.48A1.208,1.208,0,0,0,56.32-38.56Zm2.56,4.16A1.644,1.644,0,0,0,60-36,1.856,1.856,0,0,0,58.88-34.4Zm4.48-5.28q.16-.16.08-.24t.08-.4a6.648,6.648,0,0,0-1.28.96,10.444,10.444,0,0,1-1.12.96,2.843,2.843,0,0,0-.24.8,1.433,1.433,0,0,1-.4.8v.32a7.015,7.015,0,0,0,1.44-.8A7.124,7.124,0,0,1,63.36-39.68Zm-2.72-4.96a6.276,6.276,0,0,0,1.44-1.28,2.746,2.746,0,0,0,.16-1.12,18.37,18.37,0,0,1-1.44,1.76A.927.927,0,0,0,60.64-44.64Zm7.68-1.44a11.692,11.692,0,0,1,1.36-1.44,3.635,3.635,0,0,0,1.04-1.6.927.927,0,0,0-.64.16q-.48.48-.88.96t-.88.96q-.48.8-.32,1.12Q68.32-45.92,68.32-46.08Zm32.32-32.96a1.025,1.025,0,0,0-.96.64Q100.64-78.4,100.64-79.04ZM90.56-70.72q-1.28,1.44-2.64,2.8l-2.8,2.8-.96.96a4.949,4.949,0,0,0-2,1.76,6.994,6.994,0,0,1-1.84,1.92,6.084,6.084,0,0,0-1.28,1.36,6.083,6.083,0,0,1-1.28,1.36q-1.28,1.44-2.64,2.8A22.094,22.094,0,0,0,72.64-52a.4.4,0,0,0,0,.64,7.757,7.757,0,0,1,1.12-.96l4.32-4.8q2.72-2.72,5.36-5.44T88.8-68q.8-.8,1.68-1.76t1.68-1.76a1.077,1.077,0,0,0,.96-.48,19.63,19.63,0,0,1,2.08-1.76,13.825,13.825,0,0,0,3.68-3.84.461.461,0,0,1-.32.16,1.228,1.228,0,0,0-.48.16q-.8.64-1.52,1.12a6.083,6.083,0,0,0-1.36,1.28l-1.44,1.44a17.457,17.457,0,0,1-1.44,1.28.927.927,0,0,0-.16.64,1.592,1.592,0,0,0-.96.24A6.009,6.009,0,0,0,90.56-70.72Zm-5.12-1.6a.627.627,0,0,0-.64.48Q85.44-71.84,85.44-72.32ZM66.08-52a6.007,6.007,0,0,0-.56.64.829.829,0,0,0-.08.8q.16-.16.24-.16t.24-.16q.64-.8,1.12-1.44L68-53.6a.927.927,0,0,0,.16-.64A16.491,16.491,0,0,0,70.24-56q.96-.96,1.76-1.92.48-.64.96-1.2t1.12-1.2l.64-.64a5.243,5.243,0,0,0,.64-.8,1.085,1.085,0,0,0,.32-.8l.48-.48a.283.283,0,0,0,.32-.32,20.777,20.777,0,0,1,1.92-1.76,14.32,14.32,0,0,0,3.04-2.56L84-70.56v-.48q.16,0,.48-.32-.16.16-.24.16t-.24.16a2.131,2.131,0,0,1-.72.48,2.131,2.131,0,0,0-.72.48l-5.6,5.6a1.535,1.535,0,0,0-.48,1.12q-.16,0-.48.32-.16.16-.16.24t-.16.24q-.16,0-.48.32a61.073,61.073,0,0,0-6.72,7.2.461.461,0,0,0-.16.32,1.228,1.228,0,0,1-.16.48q-.64.48-1.2.96A3.225,3.225,0,0,0,66.08-52ZM63.04-67.68l-.32.64h.32Q63.36-67.2,63.04-67.68Zm-7.36,8q-.64-.32-.32.48Q55.68-59.52,55.68-59.68Zm-16.16,28a.94.94,0,0,0-.48.8.739.739,0,0,0,.48-.8,2.706,2.706,0,0,0,1.12-1.12q.8-1.28,1.76-2.64t1.76-2.64a3.719,3.719,0,0,0,.56-.72,1.678,1.678,0,0,0,.24-.88,1.912,1.912,0,0,0,1.28-1.44l.72-.72a1.223,1.223,0,0,0,.4-.88,10.906,10.906,0,0,1,.88-.8,3.5,3.5,0,0,0,.72-.8q.8-.96,1.52-1.92T52-48.16a19.97,19.97,0,0,1,1.68-2.32q.88-1.04,2-2.16l.96-.96a7.015,7.015,0,0,1,1.04-1.36,16.592,16.592,0,0,0,1.2-1.36q.48-.48.96-.88t.96-.88a5.232,5.232,0,0,1,.32-.56.986.986,0,0,0,.16-.56l.32-.32a1.458,1.458,0,0,0,.8-.8,5.492,5.492,0,0,0,1.6-1.6,1.414,1.414,0,0,0-1.6,1.6.707.707,0,0,0-.8.8q-.16,0-.48.32a.652.652,0,0,0-.48.16,9.156,9.156,0,0,0-1.76,1.6A3.225,3.225,0,0,1,58-56.16q-.56.48-1.2,1.12-.48.64-1.04,1.28t-1.04,1.28q-.8.96-1.6,1.84t-1.6,1.84q-.96,1.28-1.92,2.48a26.178,26.178,0,0,0-1.76,2.48q-.32.32-.32.48a1.228,1.228,0,0,1-.16.48,2.838,2.838,0,0,0-1.28,1.6,1.856,1.856,0,0,0-1.12,1.6,3.878,3.878,0,0,1-.56.48,1.208,1.208,0,0,0-.4.48q-.8,1.12-1.52,2.16T40.96-34.4L40-33.12A2.34,2.34,0,0,0,39.52-31.68Zm-.8,1.12a.94.94,0,0,0-.48.8A.739.739,0,0,0,38.72-30.56Zm-8,4.16a.141.141,0,0,1,.16.16.141.141,0,0,1,.16-.16l-.16-.16ZM25.76-9.92a2.212,2.212,0,0,0-1.12,2.08,1.429,1.429,0,0,0,.8-.88q.16-.56.32-1.2.32-.16.32-.8a1.732,1.732,0,0,0,.8-.64q.64-.96,1.28-2t1.28-2q.48-.64.88-1.28t.72-1.28l1.44-2.4a28.262,28.262,0,0,0,1.84-2.8,17.723,17.723,0,0,1,2-2.8,6.45,6.45,0,0,0,.56-1.04,3.014,3.014,0,0,0,.24-1.2,1.134,1.134,0,0,0,.8-1.12,1.134,1.134,0,0,0-.8,1.12,2.312,2.312,0,0,0-.72.72,3.72,3.72,0,0,1-.56.72,6.09,6.09,0,0,1-1.12,1.6,26.354,26.354,0,0,0-1.44,2.24,26.354,26.354,0,0,1-1.44,2.24l-.64,1.28a5.014,5.014,0,0,1-.96,1.28.922.922,0,0,0-.32.64q-1.6,2.72-3.04,4.96-.32.48-.56.88a1.678,1.678,0,0,0-.24.88Q25.76-10.56,25.76-9.92ZM23.84-6.24a1.29,1.29,0,0,0-.64.96,1.29,1.29,0,0,0,.64-.96,1.99,1.99,0,0,0,.64-1.44A1.08,1.08,0,0,0,23.84-6.24ZM22.4-4.16a1.42,1.42,0,0,0-.16.64A.523.523,0,0,0,22.4-4.16ZM219.2-45.92a.326.326,0,0,1,.24.08.326.326,0,0,0,.24.08,7.946,7.946,0,0,1-.88,1.6q-.56.8-1.04,1.6l-1.92,2.24a.866.866,0,0,1-.32.4,1.253,1.253,0,0,0-.32.24.7.7,0,0,1-.96-.16l.32-.96q.64,0,.8-.8a1.575,1.575,0,0,1-.56.4.37.37,0,0,0-.24.4l-2.4,2.24v.64a3.138,3.138,0,0,0-.72.64l-.24.48a3.876,3.876,0,0,1,.56-.48,1.2,1.2,0,0,0,.4-.64l1.12-.48.32-.8v.64a1.523,1.523,0,0,1-.48,1.44,38.749,38.749,0,0,1-4.8,4.64.866.866,0,0,1-.32.4.256.256,0,0,0-.16.24,3.622,3.622,0,0,1-1.28,1.28,5.229,5.229,0,0,0-.56.32,5.23,5.23,0,0,1-.56.32q-.8.8-1.44,1.52t-1.44,1.52a7.241,7.241,0,0,1-1.28,1.28A7.241,7.241,0,0,0,200-24.32l-1.2,1.2a7.016,7.016,0,0,1-1.36,1.04l-.32.32A2.707,2.707,0,0,1,196-20.64l-1.12.96q-.64.64-1.12,1.2a3.225,3.225,0,0,1-1.28.88h-.16a4.334,4.334,0,0,1-1.44,1.2q-.8.4-1.6.88l-3.04,1.76-1.12.32-3.36.64-1.12-.32-.48.32h-1.44a7.416,7.416,0,0,1-1.44-.16l-2.72-.48a.461.461,0,0,0-.16-.32,8.778,8.778,0,0,0-1.12-.48,8.78,8.78,0,0,1-1.12-.48l-.48.48q-.48.64-.96,1.2a5.881,5.881,0,0,0-.8,1.2L168.8-10.4q-.32.48-.72,1.04a8.247,8.247,0,0,1-.88,1.04l-1.44,1.76a3.967,3.967,0,0,0-1.12,1.6,4.7,4.7,0,0,1-1.12,1.28l-.96,1.28L160.8,0l-.48.64a9.156,9.156,0,0,0-1.6,1.76,6.753,6.753,0,0,0-1.28,1.76l-1.28.96a.866.866,0,0,1-.32.4,2.277,2.277,0,0,0-.48.4,11.251,11.251,0,0,1-.72.96q-.4.48-.72.8a8.412,8.412,0,0,1-1.6,1.28,8.413,8.413,0,0,0-1.6,1.28,8.245,8.245,0,0,1-1.04.88,2.786,2.786,0,0,0-.88,1.04,1.53,1.53,0,0,1-.88.64q-.56.16-1.04.32-.64.48-1.12.8a3.569,3.569,0,0,1-1.28.48.461.461,0,0,1-.32.16,3.828,3.828,0,0,1-1.52.8,9.889,9.889,0,0,0-1.52.48l-1.28.48a.927.927,0,0,1-.64.16l-.48-.64q-.16.64-.56.56a1.09,1.09,0,0,0-.72.08l-.8-.32-1.44.32-.48-.48-.16.16-1.6-.48a6.271,6.271,0,0,0-1.44-.64.652.652,0,0,1-.48-.16.652.652,0,0,1-.48-.16,10,10,0,0,0-1.84-1.44,10,10,0,0,1-1.84-1.44.141.141,0,0,0-.16-.16,21.867,21.867,0,0,0-1.6-2,9.515,9.515,0,0,1-1.44-2.16l-1.2-2.4a11.685,11.685,0,0,1-.88-2.4L120.32-.8v-.96a11.66,11.66,0,0,1-.16-1.92V-5.6a8.529,8.529,0,0,1,.16-1.92l.48-4.32a1.42,1.42,0,0,0,.16-.64,1.248,1.248,0,0,1,0-.88q.16-.4.32-.72a3.246,3.246,0,0,0,.64-1.76.922.922,0,0,1,.32-.64,2.807,2.807,0,0,0,.32-.8q.48-.96.88-1.92t.72-1.92l1.44-2.72.48-.8.64-1.44a.141.141,0,0,0,.16-.16,6.254,6.254,0,0,1,.88-1.52q.56-.72,1.04-1.36l.48-.8a.326.326,0,0,1,.08-.24.326.326,0,0,0,.08-.24,7.839,7.839,0,0,0,1.36-1.84,7.839,7.839,0,0,1,1.36-1.84q.8-1.12,1.6-2.16t1.6-2.32a5.88,5.88,0,0,1,.8-1.2q.48-.56.96-1.2l.8-1.12a29.117,29.117,0,0,1,2.24-3.2,4.553,4.553,0,0,0,.8-.96,15.234,15.234,0,0,1,1.6-1.92A9.03,9.03,0,0,0,144-50.08L145.76-52h.48l1.44-2.08q.16,0,.16-.32a8.848,8.848,0,0,0,1.68-1.44,3.87,3.87,0,0,1,2-1.12,1.849,1.849,0,0,1,.72-1.2q.56-.4,1.04-.72a10.444,10.444,0,0,1,1.12-.96,8.408,8.408,0,0,1,1.28-.8l1.6-1.28.32-.32A5.34,5.34,0,0,0,159.84-64a2.807,2.807,0,0,0,.8-.32,2.594,2.594,0,0,0,1.6-1.12,3.225,3.225,0,0,1,1.92-.96,1.773,1.773,0,0,0,.56-.08,1.773,1.773,0,0,1,.56-.08,6.27,6.27,0,0,1,1.44-.64,9.278,9.278,0,0,1,4.96-1.28.461.461,0,0,0,.32-.16q.32.32.48.32a2.777,2.777,0,0,1,1.12-.08,2.777,2.777,0,0,0,1.12-.08,2.006,2.006,0,0,1,1.6,0,.461.461,0,0,0,.32.16q.64.16,1.12.24a5.83,5.83,0,0,0,.96.08A2.214,2.214,0,0,0,180-66.96a1.677,1.677,0,0,1,1.12,1.04l1.44.8.96-.8a3.707,3.707,0,0,0,.72-.08,3.708,3.708,0,0,1,.72-.08,1.97,1.97,0,0,1,.96-.08,1.97,1.97,0,0,0,.96-.08,13.778,13.778,0,0,1,1.52.08q.72.08,1.52.24a1.861,1.861,0,0,1,.48.32.652.652,0,0,0,.48.16,9.086,9.086,0,0,1,2.16,1.12,14.128,14.128,0,0,1,1.68,1.44,2.45,2.45,0,0,1,1.12,2.08v.32a.633.633,0,0,1,.4.08.326.326,0,0,0,.24.08l.16.16a6.45,6.45,0,0,1,.56,1.04,6.45,6.45,0,0,0,.56,1.04,2.5,2.5,0,0,1,.32,2.4v.48a.858.858,0,0,1,.64.96,4.848,4.848,0,0,1-.8,3.04l-1.12,1.92a3.152,3.152,0,0,0-.8,1.12l-2.56,3.52L192-42.56l-1.12,1.76a3.691,3.691,0,0,0-.48,1.04,1.53,1.53,0,0,1-.64.88q-.32.64-.56,1.2a1.755,1.755,0,0,1-1.04.88.633.633,0,0,1-.08.4.326.326,0,0,0-.08.24,4.918,4.918,0,0,0-1.76,2.08q0,.32-.16.32a.461.461,0,0,0-.32.16,6.621,6.621,0,0,1-.88,1.12q-.72.8-1.52,1.76t-1.52,1.84a8.577,8.577,0,0,0-.88,1.2q0,.16-.64.8-.32.32.16.56a3.57,3.57,0,0,0,1.2.32q.72.08,1.36.16l.64.08a17.82,17.82,0,0,0,7.76-2.4,53.257,53.257,0,0,0,7.76-5.2,74.965,74.965,0,0,0,6.72-6.08,69.906,69.906,0,0,0,4.8-5.36,27.184,27.184,0,0,0,4.48-4.88q1.44-2.16,2.24-1.36l.32.64q-.32.32-.32.48l-.32-.48-.64,1.92h.64l.48-1.28a.326.326,0,0,1,.24.08.326.326,0,0,0,.24.08,1.114,1.114,0,0,0,.08.48,1.114,1.114,0,0,1,.08.48h.64a3.723,3.723,0,0,0,.64.96,4.788,4.788,0,0,0-.88,1.6,2.94,2.94,0,0,1-1.04,1.44l-1.92,2.4v.32a5.653,5.653,0,0,0,1.36-1.12,9.965,9.965,0,0,0,1.04-1.44l.48-.64Zm-.48-1.28.16-.16h-.16Zm-.96-1.6a.141.141,0,0,1-.16.16l.32.32A.652.652,0,0,1,217.76-48.8Zm-23.36.16a1.384,1.384,0,0,0-.64,1.12,2.135,2.135,0,0,1,.4-.56.768.768,0,0,0,.24-.56l.16-.16h-.16Zm-4.32,6.08a3.71,3.71,0,0,0-.8,1.6.652.652,0,0,1,.48-.16q.32-.64.64-1.2t.64-1.2a1.521,1.521,0,0,0,.64-1.28.627.627,0,0,0,.48-.64,4.375,4.375,0,0,0,1.12-1.6,2.373,2.373,0,0,0-1.12,1.6q-.48.32-.48.64a1.521,1.521,0,0,0-.64,1.28Zm-.96,1.92a1.718,1.718,0,0,0-.8,1.6,3.72,3.72,0,0,0,.56-.72A1.678,1.678,0,0,0,189.12-40.64Zm-2.4-4.32a.461.461,0,0,1-.16.32l.16-.16ZM184.8-34.88a4.82,4.82,0,0,1-.8,1.36,2.931,2.931,0,0,0-.64,1.36l1.92-2.56A2.195,2.195,0,0,1,186-36a3.225,3.225,0,0,0,.88-1.28h-.16a6.992,6.992,0,0,1-1.04,1.12A3.225,3.225,0,0,0,184.8-34.88Zm-2.08,3.52a3.677,3.677,0,0,0-1.28,1.28,1.9,1.9,0,0,0,1.28-1.28l.32-.32a.141.141,0,0,1-.16-.16A.652.652,0,0,0,182.72-31.36ZM157.28-43.52q-.32.32-.32.48l.16.16.32-.64Zm-1.44,1.6.16.16q.32-.32.48-.32a.461.461,0,0,0-.32-.16Zm-2.08,1.76a.652.652,0,0,1,.48-.16l-.16-.16Zm-.16.16a1.017,1.017,0,0,0-.8.64,4.039,4.039,0,0,1-.48.96,2.064,2.064,0,0,0,.72-.8A3.045,3.045,0,0,1,153.6-40Zm-1.92,2.24q-.8.16-1.28,1.44Zm-2.72,2.72a8.253,8.253,0,0,0-1.6,1.76,22.506,22.506,0,0,1-1.44,1.92l-1.76,2.08a16.864,16.864,0,0,1-.96,1.44,6.261,6.261,0,0,0-.8,1.44l-1.28,1.76-2.88,4.16a43.533,43.533,0,0,0-2.56,4q-.32.64-.72,1.28t-.88,1.28a11.009,11.009,0,0,1-.64,1.36,11.7,11.7,0,0,1-.8,1.2l-.48,1.28a.633.633,0,0,1-.08.4.633.633,0,0,0-.08.4v.48l1.76-3.04L135.84-16l2.88-4.32,1.12-1.28.48-.64a6.262,6.262,0,0,1,.8-1.44,16.856,16.856,0,0,0,.96-1.44,6.357,6.357,0,0,1,.8-.96,4.271,4.271,0,0,0,.8-1.12,2.912,2.912,0,0,1,.96-1.28q.48-.48.48-.64a2.664,2.664,0,0,1,.96-1.76l.48-.64,2.4-3.2.32-.64Zm-3.2-12.48a.326.326,0,0,1-.08.24.326.326,0,0,0-.08.24Q145.92-47.04,145.76-47.52Zm-.32.64v0Zm-.96.8a.652.652,0,0,0-.16.48Q144.64-45.92,144.48-46.08Zm-.8,1.12q-.32,0-.32.48Q143.68-44.48,143.68-44.96Zm-.96,1.12a.922.922,0,0,0-.32.64A.645.645,0,0,0,142.72-43.84Zm-14.4,20.8.32-.32,1.92-3.04,2.24-3.36a13.159,13.159,0,0,1,1.12-1.92l.8-.64a9.994,9.994,0,0,1,.96-1.36,4.82,4.82,0,0,0,.8-1.36l.48-.8q.32,0,.32-.48,0-.16.08-.16t.08-.16a2.912,2.912,0,0,0,.96-1.28,1.9,1.9,0,0,0,.96-1.28.645.645,0,0,0,.32-.64.922.922,0,0,0-.32.64,1.9,1.9,0,0,0-.96,1.12,3.366,3.366,0,0,0-.96,1.44.141.141,0,0,1-.16.16.645.645,0,0,0-.32.64.141.141,0,0,0-.16.16l-2.72,3.52a.652.652,0,0,0-.16.48l-.96,1.12-1.92,2.72q-.8,1.12-1.44,2.16t-1.28,2.16Zm.48,9.76-.64.32.32.32Zm1.92-3.68,3.52-5.92q.8-1.28,1.52-2.32t1.52-2.16l.96-1.44a11.512,11.512,0,0,0,1.44-1.76l1.28-1.92,4.32-6.08a.645.645,0,0,0,.32-.64.922.922,0,0,0-.32.64,1.69,1.69,0,0,0-.8.56,8.728,8.728,0,0,1-.64.72,9.887,9.887,0,0,0-1.36,1.68,19.112,19.112,0,0,1-1.2,1.68L139.2-31.2q-.8,1.28-1.6,2.48T136-26.24a9.735,9.735,0,0,1-1.12,1.44q-.48.8-1.04,1.6t-1.2,1.6q-.32.48-.64,1.04t-.64,1.2l-2.24,4.48v.8q0-.16.08-.16t.08-.16l.16-.16Zm33.76-26.4a9.121,9.121,0,0,1,.48-1.6l.64-1.6q-.32-.48-.8,0l-2.24,1.12-.48.48-.96,1.12-.48.48a1.114,1.114,0,0,0-.48.08.71.71,0,0,1-.32.08l-3.2,3.04a.866.866,0,0,1-.32.4,2.277,2.277,0,0,0-.48.4,4.515,4.515,0,0,0-1.44,1.44,1.253,1.253,0,0,0-.24.32.866.866,0,0,1-.4.32,1.208,1.208,0,0,0-.48.4,3.879,3.879,0,0,1-.48.56,3.152,3.152,0,0,1-.8,1.12l-1.6,1.6-.96.96a11.187,11.187,0,0,1-1.04,1.2,4.624,4.624,0,0,0-.88,1.2q0,.64-.48.64a.538.538,0,0,0-.48.24,1.208,1.208,0,0,1-.48.4.461.461,0,0,0,.16.32.461.461,0,0,0-.16.32,3.838,3.838,0,0,1-1.44,1.92l-.32.48a7.1,7.1,0,0,1-.64,1.28l-.64.96a3.719,3.719,0,0,0-.56.72,1.678,1.678,0,0,0-.24.88l-1.12.64a1.118,1.118,0,0,1-.96,1.28,2.632,2.632,0,0,0-.16.8,10.442,10.442,0,0,1-.96,1.12,4.271,4.271,0,0,0-.8,1.12.543.543,0,0,0-.16.4.543.543,0,0,1-.16.4l-.56,1.12a8.944,8.944,0,0,1-.56.96,23.053,23.053,0,0,1-1.44,2.48,12.167,12.167,0,0,0-1.28,2.48q-.16,0-.16.08t-.16.08a7.383,7.383,0,0,0-.96,2.08q-.32.96-.64,2.24a2.474,2.474,0,0,1-.24,1.12,5.476,5.476,0,0,0-.4,1.12q-.16.32-.32.72a1.965,1.965,0,0,0-.16.72A3.183,3.183,0,0,1,130.56.8l.64.32a1.708,1.708,0,0,0,.88.08,7.4,7.4,0,0,0,.88-.24,2.958,2.958,0,0,0,1.68-.48,8.27,8.27,0,0,1,1.52-.8,7.567,7.567,0,0,1,3.04-1.6l2.56-2.4a1.9,1.9,0,0,0,1.12-.96,2.857,2.857,0,0,1,.8-.8,5.243,5.243,0,0,0,.8-.64l.32-.32,1.6-1.28.96-1.28a11.315,11.315,0,0,1,1.6-1.6,11.314,11.314,0,0,0,1.6-1.6.141.141,0,0,1,.16-.16,6.973,6.973,0,0,0,2.08-1.92l.8-.48a.866.866,0,0,1,.32-.4,1.253,1.253,0,0,0,.32-.24l2.4-2.72q.64-.64,1.28-1.2a10.6,10.6,0,0,0,1.28-1.36L161.6-24l.48-.8q.48-.32,1.04-.72a2.786,2.786,0,0,0,.88-1.04,14.364,14.364,0,0,0-.8-3.04,11.21,11.21,0,0,1-.16-4.16,2.746,2.746,0,0,0,.16-1.12,2.63,2.63,0,0,1,.08-.64,2.63,2.63,0,0,0,.08-.64.71.71,0,0,1,.08-.32,1.114,1.114,0,0,0,.08-.48l.32-2.56a8.213,8.213,0,0,0,.4-1.92Q164.32-42.4,164.48-43.36ZM179.2-34.4l-.32.32.16.16a.461.461,0,0,0,.16-.32Zm30.72-1.28-.16.32h.16Zm.32-.16q.48-.16.48-.48ZM259.2-45.6q.8.8-.48,2.08l-3.68,4.8-.64.48a7.825,7.825,0,0,0-.48.8,3.85,3.85,0,0,1-.96.96l-1.28,1.44q-.16-.16-.64,0a.461.461,0,0,0-.16.32q0,.16-.32.48l.96-.48-.32.32v.16l-1.12,1.28a8.5,8.5,0,0,1-1.36,1.92q-.88.96-1.68,1.76l-.48.48a3.516,3.516,0,0,1-.96,1.36q-.64.56-1.28,1.2-.32.32-.32.48t-.32.48l-.8.8q-.48.16-.8,1.28l-.64.8a1.407,1.407,0,0,0-.56.56,3.72,3.72,0,0,1-.56.72q-.96,1.28-2.08,2.56L236-16a14.562,14.562,0,0,1-1.12,1.6,4.723,4.723,0,0,1-1.6,1.28l-.64,1.28a.261.261,0,0,0-.32-.08A.261.261,0,0,1,232-12a10.769,10.769,0,0,1,1.76-2.24l.64-.8q.96-1.12,1.76-2.16t1.76-2.16a2.008,2.008,0,0,0,.48-.8q.16,0,.16-.08t.16-.08l.8-.96q.8-.8.8-.96l-1.76,1.92-.16.16-1.28,1.44a9.747,9.747,0,0,0-1.04,1.2,9.746,9.746,0,0,1-1.04,1.2L232-12.96l-3.36,4.48a2.312,2.312,0,0,1,.72-.72,2.312,2.312,0,0,0,.72-.72,6.009,6.009,0,0,0,.56-.64,2.905,2.905,0,0,1,.72-.64l.48-.48a.912.912,0,0,1-.32.96,2.133,2.133,0,0,1-.8.96l-2.56,3.2a20.888,20.888,0,0,1-1.92,2.24,4.923,4.923,0,0,0-.8,1.04q-.32.56-.64,1.2a.461.461,0,0,1-.32.16q-.16,0-.32.32a3.677,3.677,0,0,0-1.28,1.28,14.56,14.56,0,0,1-1.12,1.6l-1.28,1.44A6.542,6.542,0,0,0,218.8,4q-.56.64-1.36,1.44l-.96,1.12q-.96.96-1.84,2t-2,2.16a6.149,6.149,0,0,1-.96,1.04q-.48.4-1.28,1.04a3.878,3.878,0,0,1-.56.48,3.879,3.879,0,0,0-.56.48,1.429,1.429,0,0,1-.88.8,3.691,3.691,0,0,0-1.04.48l-1.92,1.12a1.114,1.114,0,0,0-.48.08.568.568,0,0,1-.48-.08q0-.16-.08-.16t.08-.32a2.228,2.228,0,0,1-.96.16l-.64-.64a2.784,2.784,0,0,1-1.12.48,5.332,5.332,0,0,1-3.68,1.28,3.973,3.973,0,0,1-3.52-.32.866.866,0,0,1-.4-.32q-.08-.16-.4-.16a11.157,11.157,0,0,1-2.32-.88,7.914,7.914,0,0,1-2-1.2,6.02,6.02,0,0,1-1.76-1.92,6.262,6.262,0,0,1-.8-1.44l-.64-1.6a2.4,2.4,0,0,1,.16-2.24.881.881,0,0,1-.24-1.04,3.448,3.448,0,0,0,.24-1.36,8.5,8.5,0,0,1,.08-1.2,9.816,9.816,0,0,0,.08-1.36q0-.64.32-.8V.64A1.034,1.034,0,0,1,186.8-.4q.24-.56.4-1.04l.8-1.12q.16-.48.32-1.12a1.99,1.99,0,0,0,0-1.12,1.208,1.208,0,0,1,.4-.48,3.879,3.879,0,0,0,.56-.48l.32-.48a5.168,5.168,0,0,0,.64-1.52,3.828,3.828,0,0,1,.8-1.52,4.388,4.388,0,0,0,.24-.56,3.507,3.507,0,0,1,.4-.72.971.971,0,0,1,.24-.48,2.8,2.8,0,0,0,.4-.8,3.851,3.851,0,0,1,.4-1.04q.24-.4.56-1.04a3.723,3.723,0,0,0,.64-.96l.48-.96v-.48a.141.141,0,0,1,.16-.16,19,19,0,0,1,1.36-2.32,7.035,7.035,0,0,0,1.04-2.32.461.461,0,0,1,.32-.16l2.08-3.36,1.12-1.92a2.136,2.136,0,0,1,.4-.56,3.591,3.591,0,0,0,.56-.88,3,3,0,0,0,.96-1.2,14.129,14.129,0,0,1,.8-1.52l2.4-4.16.64-1.44q.8-1.12,1.44-2.16a12.059,12.059,0,0,1,1.76-2.16v-.32a4.725,4.725,0,0,1,2.08-2.08q.32-.48.24-.64a.568.568,0,0,1,.08-.48l1.28-1.12a2.967,2.967,0,0,1,.4-1.6,9.063,9.063,0,0,0,.72-1.44q.48-.8.8-1.36a4.924,4.924,0,0,1,.8-1.04,5.787,5.787,0,0,0,1.12-2,21.7,21.7,0,0,1,.8-2.16q.48-.64.88-1.28a7.52,7.52,0,0,0,.72-1.6A1.685,1.685,0,0,0,220-59.2l2.08-2.72q.16-.32,1.12-1.84t2.32-3.76q1.36-2.24,2.96-4.72t2.96-4.64q1.36-2.16,2.24-3.76a17.386,17.386,0,0,0,1.04-2.08,9.7,9.7,0,0,1,.96-2,12.4,12.4,0,0,0,.96-1.84,1.435,1.435,0,0,1,.24-.72q.24-.4.4-.72a5.221,5.221,0,0,1,.56-1.52,13.288,13.288,0,0,0,.72-1.52l1.12-2.24a17.4,17.4,0,0,0,.96-3.36,1.069,1.069,0,0,0-.16-1.44,3.792,3.792,0,0,1-.4-2.4,4.563,4.563,0,0,1,.88-1.76,20.613,20.613,0,0,1,1.52-1.68q.88-.88,1.68-1.84a2.507,2.507,0,0,0,.48-.64.513.513,0,0,1,.48-.32,6.206,6.206,0,0,0,.8-.32,1.42,1.42,0,0,1,.64-.16,3.365,3.365,0,0,1,.8.08,2.631,2.631,0,0,0,.64.08.461.461,0,0,0,.16.32.2.2,0,0,1,0,.32l1.76.48a1.669,1.669,0,0,0,1.28,1.6l.96,2.08a.665.665,0,0,1,.24.64.665.665,0,0,0,.24.64,1.158,1.158,0,0,1,.48,1.04,2.228,2.228,0,0,0,.48,1.36v2.24q-.16,1.28-.32,2.48a6.573,6.573,0,0,0,.16,2.48q.32.16.16.4a.778.778,0,0,0-.16.4q-.32.8-.56,1.52a4.775,4.775,0,0,0-.24,1.52.878.878,0,0,0-.32.56,2.036,2.036,0,0,1-.48.88l-.96,3.36a9.018,9.018,0,0,0-.72,1.44q-.24.64-.56,1.44L244-70.08q-4.96,8.48-8.72,16.16a106.36,106.36,0,0,1-8.88,14.88.141.141,0,0,0-.16.16v.32a7.383,7.383,0,0,1-.96,2.08q-.64.96-1.28,2.08a1.31,1.31,0,0,0-.48.8,7.556,7.556,0,0,1-1.92,2.88l-.96,1.12q-.32.8-.72,1.6a6.268,6.268,0,0,1-1.2,1.6q-.32.64-.64,1.44l-.64,1.6a2.131,2.131,0,0,0-.48.72,2.131,2.131,0,0,1-.48.72q-.48.8-.32.96-.64.96-1.2,1.92t-1.04,1.92a13.915,13.915,0,0,1-1.04,1.76,13.915,13.915,0,0,0-1.04,1.76.912.912,0,0,0-.32.96,2.131,2.131,0,0,0-.48.72,4.983,4.983,0,0,1-.64,1.04l-.64,1.76a2.191,2.191,0,0,0-.8,1.28,4.554,4.554,0,0,1-.8.96,9.173,9.173,0,0,1-.8,2.16q-.48.88-1.12,1.84a9.4,9.4,0,0,0-.88,1.44q-.4.8-.72,1.6a6.444,6.444,0,0,1-1.12,1.92h.32l.64-.48a25.482,25.482,0,0,1,2.4-2.4,1.851,1.851,0,0,0,.4-.24l.24-.24q.32-.32.32-.48t.32-.48a7.117,7.117,0,0,0,2-1.28A15.591,15.591,0,0,1,212-4.96l.88-.88a3.964,3.964,0,0,1,1.04-.72l2.72-2.88,2.88-3.04,1.12-1.12,3.04-2.72.64-.64a1.458,1.458,0,0,0,.8-.8,16.258,16.258,0,0,1,1.6-1.68q.8-.72,1.76-1.68a1.316,1.316,0,0,0,.4-.08,1.773,1.773,0,0,1,.56-.08l.32-1.12.8-.48a2.618,2.618,0,0,1,.64.16,5.237,5.237,0,0,1,.32-1.28.633.633,0,0,0,.4-.08.326.326,0,0,1,.24-.08,2.456,2.456,0,0,0,.32-.96h.64q.32-.16.24-.4a1.316,1.316,0,0,1-.08-.4,12.129,12.129,0,0,0,2-2.16,7.534,7.534,0,0,1,1.84-1.84,4.491,4.491,0,0,1,1.12-1.76q.8-.8,1.6-1.76a2.008,2.008,0,0,0,.48-.8l1.44-1.12.96-1.28A4.4,4.4,0,0,1,244-37.76a9.965,9.965,0,0,1,1.04-1.44,5.653,5.653,0,0,1,1.36-1.12l.32-.8,2.56-2.56,1.92-2.24,1.76-1.92,2.4-2.72,1.12-.8a1.781,1.781,0,0,0,.8.16q-.16.32,0,.32a.141.141,0,0,1,.16.16h.32l.96,1.28a1.415,1.415,0,0,0-.4.64,3.128,3.128,0,0,1-.24.64l.8-.32Q259.68-47.84,259.2-45.6ZM193.6-8.16a.2.2,0,0,0-.32,0,.461.461,0,0,0-.16.32v.16q-.32.32-.32.48h.16q.16,0,.08-.16a.261.261,0,0,1,.08-.32Zm20.48-12.96-.16-.16v.32q-.16,0-.16.64v-.32a.461.461,0,0,1,.16-.32ZM216-24.48a1.425,1.425,0,0,0,.8-1.76,3.461,3.461,0,0,0-.8,1.76,2.58,2.58,0,0,0-.96,2.08.141.141,0,0,0-.16.16h.16v-.16A5.375,5.375,0,0,0,216-24.48Zm7.2-12.32q-.8,1.28-1.44,2.32t-1.44,2.32l-.16.48a14.555,14.555,0,0,0-1.12,1.6,14.557,14.557,0,0,1-1.12,1.6v.64l1.6-2.56a2.136,2.136,0,0,1,.4-.56.978.978,0,0,0,.24-.72A27.54,27.54,0,0,0,222-34.24,7.464,7.464,0,0,0,223.2-36.8Zm-1.92-6.08a1.289,1.289,0,0,0-.16.56.878.878,0,0,1-.32.56A1.026,1.026,0,0,0,221.28-42.88Zm-11.68,6.4h.16v-.32Zm-9.12,15.36a1.289,1.289,0,0,0-.16.56,1.289,1.289,0,0,1-.16.56,2.34,2.34,0,0,0,.48-1.44q.64-.32.32-.48,0,.16-.32.48Zm-.8,5.44q-.16.32-.08.4t-.08.24q.32,0,.32-.16a1.9,1.9,0,0,0,.32-1.44A1.383,1.383,0,0,1,199.68-15.68Zm-.64,1.76a1.085,1.085,0,0,0,.32-.8Zm-3.84,2.08a.461.461,0,0,1-.16.32l.32-.32Zm-.16.96q-.8,0-.16.64Q194.72-10.72,195.04-10.88Zm3.84,7.84a1.861,1.861,0,0,1,.32-.48,1.861,1.861,0,0,0,.32-.48q.32-.8.8-1.76t.8-1.76q.8-1.28,1.44-2.48A20.949,20.949,0,0,1,204-12.32q.8-1.6,1.76-3.2t1.92-3.36l1.28-2.24a16.513,16.513,0,0,0,1.12-2.4,2.277,2.277,0,0,0,.4-.48l.24-.48a32.373,32.373,0,0,0,1.68-2.8q.72-1.36,1.52-2.64,1.92-2.56,3.92-5.44a18.725,18.725,0,0,0,2.8-5.92q-.64,1.12-1.12,2.08t-1.28,2.24l-2,3.2q-1.2,1.92-3.28,4.96a6.268,6.268,0,0,0-1.2,1.6q-.4.8-.88,1.6l-1.44,2.08a8.844,8.844,0,0,1-.8,1.76,11.2,11.2,0,0,0-.8,1.6,7.582,7.582,0,0,0-1.2,1.92,7.583,7.583,0,0,1-1.2,1.92q-.8,1.44-1.52,2.96t-1.68,3.12l-1.6,3.04a4.362,4.362,0,0,0-1.12,1.92,2.029,2.029,0,0,0-.48.96,2.029,2.029,0,0,1-.48.96L197.12,0l-.16.16A3.872,3.872,0,0,0,196,2.24q-.48,1.12-.8,2.08l-.64,1.92a1.088,1.088,0,0,0,.16,1.44.461.461,0,0,0,.16-.32q.32-.96.56-1.92A13.67,13.67,0,0,1,196,3.68l1.92-4.32ZM203.2,0q.32-.8.72-1.6l.72-1.44a4.409,4.409,0,0,0,.8-1.76,13.167,13.167,0,0,0,1.04-1.84,18.84,18.84,0,0,0,.72-1.84,2.131,2.131,0,0,0,.48-.72q.16-.4.32-.72a21.425,21.425,0,0,0,2.16-3.68,22.381,22.381,0,0,1,2-3.52,5.308,5.308,0,0,1,.56-1.12l.72-.96q-.16-.32-.08-.32t.08-.32q-.64.32-.48.32h-.16l-1.28,2.72a7.182,7.182,0,0,1-1.12,1.76l-1.92,3.52L205.6-6.08l-2.4,4.32a19.519,19.519,0,0,1-.8,2q-.48,1.04-.96,2-.32.8-.64,1.52t-.64,1.68a1.228,1.228,0,0,0,.16.48q0-.16.32-.48a.461.461,0,0,0,.16-.32l1.44-3.52Zm8.96,9.76a.922.922,0,0,0-.32.64Zm.16-.16q.32,0,.64-.48a.141.141,0,0,1-.16-.16Q212.32,9.44,212.32,9.6Zm6.24-6.56a8.729,8.729,0,0,1-.72.64.985.985,0,0,0-.4.8ZM220.8.8a.461.461,0,0,1,.16-.32l-.32.32-.16.32A.283.283,0,0,1,220.8.8Zm1.28-1.28a2.136,2.136,0,0,0-.56.4l-.4.4q.8,0,.8-.64Zm1.28-1.28a8.412,8.412,0,0,0,1.28-1.6q.48-.8,1.12-1.76l-.64.64a11.1,11.1,0,0,1-1.44,1.92.729.729,0,0,0-.4.4,1.576,1.576,0,0,1-.4.56,1.208,1.208,0,0,0-.48.4,2.623,2.623,0,0,1-.32.4q.8-.32.8-.8a.326.326,0,0,0,.24-.08A.326.326,0,0,1,223.36-1.76Zm3.36-4a3.682,3.682,0,0,0,.88-1.28,3.109,3.109,0,0,1,.72-1.12l-.32.32L226.08-5.6a.326.326,0,0,0,.24-.08A.633.633,0,0,1,226.72-5.76Zm3.52-15.2a.461.461,0,0,0-.16-.32h-.16l.16.32Zm2.08-1.76-.16-.16a.141.141,0,0,1-.16.16h.32Zm.8-.64a.283.283,0,0,1,.32-.32q-.32-.16-.32-.32l-.32.8Zm10.56-3.36a.962.962,0,0,0,.64-.64.866.866,0,0,0-.4.32,1.253,1.253,0,0,1-.24.32,1.208,1.208,0,0,0-.48.4,2.623,2.623,0,0,1-.32.4L241.44-24l-.96,1.6.96-.64q-.16,0-.16-.48a.729.729,0,0,0,.4-.4,1,1,0,0,1,.24-.4l1.2-1.2A2.3,2.3,0,0,0,243.68-26.72Zm1.44-1.6q.48-.32.32-.64A.922.922,0,0,1,245.12-28.32Zm2.24-2.56a.461.461,0,0,1,.32-.16q.16,0,.16-.32Zm1.28-1.6a.461.461,0,0,0-.16.32V-32Zm.96-.8q.16,0,.48-.48Q249.6-33.44,249.6-33.28Zm79.68-12.64a.326.326,0,0,1,.24.08.326.326,0,0,0,.24.08,7.948,7.948,0,0,1-.88,1.6q-.56.8-1.04,1.6l-1.92,2.24a.866.866,0,0,1-.32.4,1.254,1.254,0,0,0-.32.24.7.7,0,0,1-.96-.16l.32-.96q.64,0,.8-.8a1.576,1.576,0,0,1-.56.4.37.37,0,0,0-.24.4l-2.4,2.24v.64a3.138,3.138,0,0,0-.72.64l-.24.48a3.877,3.877,0,0,1,.56-.48,1.2,1.2,0,0,0,.4-.64l1.12-.48.32-.8v.64a1.523,1.523,0,0,1-.48,1.44,38.749,38.749,0,0,1-4.8,4.64.866.866,0,0,1-.32.4.256.256,0,0,0-.16.24,3.622,3.622,0,0,1-1.28,1.28,5.23,5.23,0,0,0-.56.32,5.228,5.228,0,0,1-.56.32q-.8.8-1.44,1.52t-1.44,1.52a7.241,7.241,0,0,1-1.28,1.28,7.241,7.241,0,0,0-1.28,1.28l-1.2,1.2a7.015,7.015,0,0,1-1.36,1.04l-.32.32a2.707,2.707,0,0,1-1.12,1.12l-1.12.96q-.64.64-1.12,1.2a3.225,3.225,0,0,1-1.28.88h-.16a4.334,4.334,0,0,1-1.44,1.2q-.8.4-1.6.88l-3.04,1.76-1.12.32-3.36.64-1.12-.32-.48.32H288.8a7.416,7.416,0,0,1-1.44-.16l-2.72-.48a.461.461,0,0,0-.16-.32,8.779,8.779,0,0,0-1.12-.48,8.781,8.781,0,0,1-1.12-.48l-.48.48q-.48.64-.96,1.2a5.882,5.882,0,0,0-.8,1.2l-1.12,1.44q-.32.48-.72,1.04a8.244,8.244,0,0,1-.88,1.04l-1.44,1.76a3.967,3.967,0,0,0-1.12,1.6,4.7,4.7,0,0,1-1.12,1.28l-.96,1.28L270.88,0l-.48.64a9.157,9.157,0,0,0-1.6,1.76,6.753,6.753,0,0,0-1.28,1.76l-1.28.96a.866.866,0,0,1-.32.4,2.277,2.277,0,0,0-.48.4,11.258,11.258,0,0,1-.72.96q-.4.48-.72.8a8.413,8.413,0,0,1-1.6,1.28,8.413,8.413,0,0,0-1.6,1.28,8.242,8.242,0,0,1-1.04.88,2.786,2.786,0,0,0-.88,1.04,1.53,1.53,0,0,1-.88.64q-.56.16-1.04.32-.64.48-1.12.8a3.569,3.569,0,0,1-1.28.48.461.461,0,0,1-.32.16,3.828,3.828,0,0,1-1.52.8,9.889,9.889,0,0,0-1.52.48l-1.28.48a.927.927,0,0,1-.64.16l-.48-.64q-.16.64-.56.56a1.09,1.09,0,0,0-.72.08l-.8-.32-1.44.32L244.8,16l-.16.16-1.6-.48a6.271,6.271,0,0,0-1.44-.64.652.652,0,0,1-.48-.16.652.652,0,0,1-.48-.16,10,10,0,0,0-1.84-1.44,10,10,0,0,1-1.84-1.44.141.141,0,0,0-.16-.16,21.864,21.864,0,0,0-1.6-2,9.515,9.515,0,0,1-1.44-2.16l-1.2-2.4a11.684,11.684,0,0,1-.88-2.4L230.4-.8v-.96a11.659,11.659,0,0,1-.16-1.92V-5.6a8.528,8.528,0,0,1,.16-1.92l.48-4.32a1.42,1.42,0,0,0,.16-.64,1.248,1.248,0,0,1,0-.88q.16-.4.32-.72a3.246,3.246,0,0,0,.64-1.76.922.922,0,0,1,.32-.64,2.807,2.807,0,0,0,.32-.8q.48-.96.88-1.92t.72-1.92l1.44-2.72.48-.8.64-1.44a.141.141,0,0,0,.16-.16,6.254,6.254,0,0,1,.88-1.52q.56-.72,1.04-1.36l.48-.8a.326.326,0,0,1,.08-.24.326.326,0,0,0,.08-.24,7.839,7.839,0,0,0,1.36-1.84,7.839,7.839,0,0,1,1.36-1.84q.8-1.12,1.6-2.16t1.6-2.32a5.881,5.881,0,0,1,.8-1.2q.48-.56.96-1.2l.8-1.12a29.117,29.117,0,0,1,2.24-3.2,4.554,4.554,0,0,0,.8-.96,15.234,15.234,0,0,1,1.6-1.92,9.03,9.03,0,0,0,1.44-1.92L255.84-52h.48l1.44-2.08q.16,0,.16-.32a8.848,8.848,0,0,0,1.68-1.44,3.87,3.87,0,0,1,2-1.12,1.849,1.849,0,0,1,.72-1.2q.56-.4,1.04-.72a10.445,10.445,0,0,1,1.12-.96,8.407,8.407,0,0,1,1.28-.8l1.6-1.28.32-.32A5.34,5.34,0,0,0,269.92-64a2.807,2.807,0,0,0,.8-.32,2.594,2.594,0,0,0,1.6-1.12,3.225,3.225,0,0,1,1.92-.96,1.773,1.773,0,0,0,.56-.08,1.773,1.773,0,0,1,.56-.08,6.271,6.271,0,0,1,1.44-.64,9.278,9.278,0,0,1,4.96-1.28.461.461,0,0,0,.32-.16q.32.32.48.32a2.777,2.777,0,0,1,1.12-.08,2.777,2.777,0,0,0,1.12-.08,2.006,2.006,0,0,1,1.6,0,.461.461,0,0,0,.32.16q.64.16,1.12.24a5.83,5.83,0,0,0,.96.08,2.215,2.215,0,0,0,1.28,1.04,1.677,1.677,0,0,1,1.12,1.04l1.44.8.96-.8a3.708,3.708,0,0,0,.72-.08,3.707,3.707,0,0,1,.72-.08,1.97,1.97,0,0,1,.96-.08,1.97,1.97,0,0,0,.96-.08,13.777,13.777,0,0,1,1.52.08q.72.08,1.52.24a1.861,1.861,0,0,1,.48.32.652.652,0,0,0,.48.16,9.086,9.086,0,0,1,2.16,1.12,14.125,14.125,0,0,1,1.68,1.44,2.45,2.45,0,0,1,1.12,2.08v.32a.633.633,0,0,1,.4.08.326.326,0,0,0,.24.08l.16.16a6.451,6.451,0,0,1,.56,1.04,6.449,6.449,0,0,0,.56,1.04,2.5,2.5,0,0,1,.32,2.4v.48a.858.858,0,0,1,.64.96,4.848,4.848,0,0,1-.8,3.04l-1.12,1.92a3.151,3.151,0,0,0-.8,1.12l-2.56,3.52-1.44,2.08-1.12,1.76a3.691,3.691,0,0,0-.48,1.04,1.53,1.53,0,0,1-.64.88q-.32.64-.56,1.2a1.755,1.755,0,0,1-1.04.88.633.633,0,0,1-.08.4.326.326,0,0,0-.08.24,4.918,4.918,0,0,0-1.76,2.08q0,.32-.16.32a.461.461,0,0,0-.32.16,6.62,6.62,0,0,1-.88,1.12q-.72.8-1.52,1.76t-1.52,1.84a8.574,8.574,0,0,0-.88,1.2q0,.16-.64.8-.32.32.16.56a3.569,3.569,0,0,0,1.2.32q.72.08,1.36.16l.64.08a17.82,17.82,0,0,0,7.76-2.4,53.257,53.257,0,0,0,7.76-5.2A74.965,74.965,0,0,0,316-39.44a69.909,69.909,0,0,0,4.8-5.36,27.183,27.183,0,0,0,4.48-4.88q1.44-2.16,2.24-1.36l.32.64q-.32.32-.32.48l-.32-.48-.64,1.92h.64l.48-1.28a.326.326,0,0,1,.24.08.326.326,0,0,0,.24.08,1.114,1.114,0,0,0,.08.48,1.114,1.114,0,0,1,.08.48h.64a3.723,3.723,0,0,0,.64.96,4.788,4.788,0,0,0-.88,1.6,2.941,2.941,0,0,1-1.04,1.44l-1.92,2.4v.32a5.653,5.653,0,0,0,1.36-1.12,9.965,9.965,0,0,0,1.04-1.44l.48-.64Zm-.48-1.28.16-.16h-.16Zm-.96-1.6a.141.141,0,0,1-.16.16l.32.32A.652.652,0,0,1,327.84-48.8Zm-23.36.16a1.384,1.384,0,0,0-.64,1.12,2.135,2.135,0,0,1,.4-.56.767.767,0,0,0,.24-.56l.16-.16h-.16Zm-4.32,6.08a3.71,3.71,0,0,0-.8,1.6.652.652,0,0,1,.48-.16q.32-.64.64-1.2t.64-1.2a1.521,1.521,0,0,0,.64-1.28.627.627,0,0,0,.48-.64,4.375,4.375,0,0,0,1.12-1.6,2.373,2.373,0,0,0-1.12,1.6q-.48.32-.48.64a1.521,1.521,0,0,0-.64,1.28Zm-.96,1.92a1.717,1.717,0,0,0-.8,1.6,3.719,3.719,0,0,0,.56-.72A1.678,1.678,0,0,0,299.2-40.64Zm-2.4-4.32a.461.461,0,0,1-.16.32l.16-.16Zm-1.92,10.08a4.82,4.82,0,0,1-.8,1.36,2.931,2.931,0,0,0-.64,1.36l1.92-2.56a2.195,2.195,0,0,1,.72-1.28,3.225,3.225,0,0,0,.88-1.28h-.16a6.991,6.991,0,0,1-1.04,1.12A3.224,3.224,0,0,0,294.88-34.88Zm-2.08,3.52a3.677,3.677,0,0,0-1.28,1.28,1.9,1.9,0,0,0,1.28-1.28l.32-.32a.141.141,0,0,1-.16-.16A.652.652,0,0,0,292.8-31.36ZM267.36-43.52q-.32.32-.32.48l.16.16.32-.64Zm-1.44,1.6.16.16q.32-.32.48-.32a.461.461,0,0,0-.32-.16Zm-2.08,1.76a.652.652,0,0,1,.48-.16l-.16-.16Zm-.16.16a1.017,1.017,0,0,0-.8.64,4.038,4.038,0,0,1-.48.96,2.064,2.064,0,0,0,.72-.8A3.045,3.045,0,0,1,263.68-40Zm-1.92,2.24q-.8.16-1.28,1.44Zm-2.72,2.72a8.253,8.253,0,0,0-1.6,1.76A22.509,22.509,0,0,1,256-31.36l-1.76,2.08a16.86,16.86,0,0,1-.96,1.44,6.261,6.261,0,0,0-.8,1.44l-1.28,1.76-2.88,4.16a43.536,43.536,0,0,0-2.56,4q-.32.64-.72,1.28t-.88,1.28a11.009,11.009,0,0,1-.64,1.36,11.7,11.7,0,0,1-.8,1.2l-.48,1.28a.633.633,0,0,1-.08.4.633.633,0,0,0-.08.4v.48l1.76-3.04L245.92-16l2.88-4.32,1.12-1.28.48-.64a6.262,6.262,0,0,1,.8-1.44,16.86,16.86,0,0,0,.96-1.44,6.358,6.358,0,0,1,.8-.96,4.271,4.271,0,0,0,.8-1.12,2.912,2.912,0,0,1,.96-1.28q.48-.48.48-.64a2.664,2.664,0,0,1,.96-1.76l.48-.64,2.4-3.2.32-.64Zm-3.2-12.48a.326.326,0,0,1-.08.24.326.326,0,0,0-.08.24Q256-47.04,255.84-47.52Zm-.32.64v0Zm-.96.8a.652.652,0,0,0-.16.48Q254.72-45.92,254.56-46.08Zm-.8,1.12q-.32,0-.32.48Q253.76-44.48,253.76-44.96Zm-.96,1.12a.922.922,0,0,0-.32.64A.645.645,0,0,0,252.8-43.84Zm-14.4,20.8.32-.32,1.92-3.04,2.24-3.36A13.157,13.157,0,0,1,244-31.68l.8-.64a10,10,0,0,1,.96-1.36,4.82,4.82,0,0,0,.8-1.36l.48-.8q.32,0,.32-.48,0-.16.08-.16t.08-.16a2.912,2.912,0,0,0,.96-1.28,1.9,1.9,0,0,0,.96-1.28.645.645,0,0,0,.32-.64.922.922,0,0,0-.32.64,1.9,1.9,0,0,0-.96,1.12,3.365,3.365,0,0,0-.96,1.44.141.141,0,0,1-.16.16.645.645,0,0,0-.32.64.141.141,0,0,0-.16.16l-2.72,3.52a.652.652,0,0,0-.16.48l-.96,1.12-1.92,2.72q-.8,1.12-1.44,2.16t-1.28,2.16Zm.48,9.76-.64.32.32.32Zm1.92-3.68,3.52-5.92q.8-1.28,1.52-2.32t1.52-2.16l.96-1.44a11.511,11.511,0,0,0,1.44-1.76l1.28-1.92,4.32-6.08a.645.645,0,0,0,.32-.64.922.922,0,0,0-.32.64,1.689,1.689,0,0,0-.8.56,8.728,8.728,0,0,1-.64.72,9.887,9.887,0,0,0-1.36,1.68,19.108,19.108,0,0,1-1.2,1.68l-2.08,2.72q-.8,1.28-1.6,2.48t-1.6,2.48a9.735,9.735,0,0,1-1.12,1.44q-.48.8-1.04,1.6t-1.2,1.6q-.32.48-.64,1.04t-.64,1.2l-2.24,4.48v.8q0-.16.08-.16t.08-.16l.16-.16Zm33.76-26.4a9.122,9.122,0,0,1,.48-1.6l.64-1.6q-.32-.48-.8,0l-2.24,1.12-.48.48-.96,1.12-.48.48a1.114,1.114,0,0,0-.48.08.71.71,0,0,1-.32.08l-3.2,3.04a.866.866,0,0,1-.32.4,2.277,2.277,0,0,0-.48.4,4.515,4.515,0,0,0-1.44,1.44,1.254,1.254,0,0,0-.24.32.866.866,0,0,1-.4.32,1.208,1.208,0,0,0-.48.4,3.878,3.878,0,0,1-.48.56,3.151,3.151,0,0,1-.8,1.12l-1.6,1.6-.96.96a11.189,11.189,0,0,1-1.04,1.2,4.624,4.624,0,0,0-.88,1.2q0,.64-.48.64a.538.538,0,0,0-.48.24,1.208,1.208,0,0,1-.48.4.461.461,0,0,0,.16.32.461.461,0,0,0-.16.32,3.838,3.838,0,0,1-1.44,1.92l-.32.48a7.1,7.1,0,0,1-.64,1.28l-.64.96a3.719,3.719,0,0,0-.56.72,1.678,1.678,0,0,0-.24.88l-1.12.64a1.118,1.118,0,0,1-.96,1.28,2.632,2.632,0,0,0-.16.8,10.444,10.444,0,0,1-.96,1.12,4.271,4.271,0,0,0-.8,1.12.543.543,0,0,0-.16.4.543.543,0,0,1-.16.4l-.56,1.12a8.941,8.941,0,0,1-.56.96,23.053,23.053,0,0,1-1.44,2.48,12.169,12.169,0,0,0-1.28,2.48q-.16,0-.16.08t-.16.08a7.383,7.383,0,0,0-.96,2.08q-.32.96-.64,2.24A2.475,2.475,0,0,1,242-3.68a5.477,5.477,0,0,0-.4,1.12q-.16.32-.32.72a1.965,1.965,0,0,0-.16.72A3.183,3.183,0,0,1,240.64.8l.64.32a1.708,1.708,0,0,0,.88.08,7.4,7.4,0,0,0,.88-.24,2.958,2.958,0,0,0,1.68-.48,8.27,8.27,0,0,1,1.52-.8,7.567,7.567,0,0,1,3.04-1.6l2.56-2.4a1.9,1.9,0,0,0,1.12-.96,2.857,2.857,0,0,1,.8-.8,5.244,5.244,0,0,0,.8-.64l.32-.32,1.6-1.28.96-1.28a11.314,11.314,0,0,1,1.6-1.6,11.312,11.312,0,0,0,1.6-1.6.141.141,0,0,1,.16-.16,6.973,6.973,0,0,0,2.08-1.92l.8-.48a.866.866,0,0,1,.32-.4,1.254,1.254,0,0,0,.32-.24l2.4-2.72q.64-.64,1.28-1.2a10.6,10.6,0,0,0,1.28-1.36l2.4-2.72.48-.8q.48-.32,1.04-.72a2.786,2.786,0,0,0,.88-1.04,14.362,14.362,0,0,0-.8-3.04,11.209,11.209,0,0,1-.16-4.16,2.746,2.746,0,0,0,.16-1.12,2.631,2.631,0,0,1,.08-.64,2.629,2.629,0,0,0,.08-.64.71.71,0,0,1,.08-.32,1.114,1.114,0,0,0,.08-.48l.32-2.56a8.213,8.213,0,0,0,.4-1.92Q274.4-42.4,274.56-43.36Zm14.72,8.96-.32.32.16.16a.461.461,0,0,0,.16-.32ZM320-35.68l-.16.32H320Zm.32-.16q.48-.16.48-.48Zm66.72-4.64q-.32.96-.48,1.6a2.014,2.014,0,0,1-.8,1.12l-3.04,3.36q-.32.32-.32.48a26.37,26.37,0,0,0-4,3.84l-.64.48-.8.64q-.48.64-.96,1.2a6.99,6.99,0,0,1-1.12,1.04,19.485,19.485,0,0,0-1.44,1.6l-1.28,1.6-.32.48A8.306,8.306,0,0,0,370-21.28a8.306,8.306,0,0,1-1.84,1.76,1.208,1.208,0,0,0-.48.4,3.879,3.879,0,0,1-.48.56q0,.16-.32.48a10.6,10.6,0,0,0-1.36,1.28q-.56.64-1.2,1.44l-1.44,1.76-2.4,3.36q-.48.64-.88,1.2A8.244,8.244,0,0,1,358.72-8l-2.88,3.68-1.6,1.76L352.32-.48A4.7,4.7,0,0,1,351.04.64l-.48.64-2.08,2.56-1.6,1.92q-.8.96-1.6,2.08a15.349,15.349,0,0,1-3.2,3.52.141.141,0,0,1-.16.16.141.141,0,0,0-.16.16,5.854,5.854,0,0,1-.96,1.12.729.729,0,0,0-.4.4.729.729,0,0,1-.4.4l-2.56,2.88-.64.32q0,.8-.96,1.12a3.5,3.5,0,0,0-.8.72,8.728,8.728,0,0,1-.64.72.461.461,0,0,0-.32.16h-.16q-.32-.32-.32-.48.16,0,.16-.08t.16-.08v-.64a.927.927,0,0,1-.64.16v.8a.922.922,0,0,0-.64-.32,3.7,3.7,0,0,0-.8.48,3.7,3.7,0,0,0-.48.8.326.326,0,0,0-.24.08.326.326,0,0,1-.24.08.927.927,0,0,1,.16.64l.48-.48L332,20v.8l-2.24,2.08a.692.692,0,0,0-.56.32q-.24.32-.88,0-.64.32-1.2.64a2.7,2.7,0,0,1-1.36.32.652.652,0,0,0-.48.16,8.529,8.529,0,0,1-1.92.16,6.094,6.094,0,0,1-3.52-.72,12.72,12.72,0,0,1-2.88-2.16l-.8-1.12-.16-.32a.326.326,0,0,1,.08-.24.633.633,0,0,0,.08-.4,6.449,6.449,0,0,1-.56-1.04,6.449,6.449,0,0,0-.56-1.04,5.714,5.714,0,0,0-1.6-1.6.513.513,0,0,1-.32-.48.513.513,0,0,0-.32-.48,2.093,2.093,0,0,0-.96-.96,4.271,4.271,0,0,1-1.12-.8,9.775,9.775,0,0,1-1.76-2.56q-.32-.8-.64-1.44t-.64-1.44a5.157,5.157,0,0,1-.64-2.24l-.32-2.24a6.226,6.226,0,0,1,.16-2.4,2.746,2.746,0,0,0,.16-1.12l.48-2.08q.32-.8.56-1.52a4.776,4.776,0,0,1,.72-1.36l.32-.64a2.507,2.507,0,0,1,.48-.64,10.369,10.369,0,0,1,2.24-3.68l.16-.32a9.066,9.066,0,0,1,.72-1.44q.4-.64.88-1.44.32-.32.48-.32v-.32l1.92-2.4,1.44-2.08.48-.8,1.28-1.12a5.874,5.874,0,0,0,1.6-2.56,1.9,1.9,0,0,1,.96-1.12,10.441,10.441,0,0,1,.96-1.12,3.755,3.755,0,0,0,.8-1.28,2.135,2.135,0,0,1,.4-.56l.56-.56,1.76-1.92q0-.32.16-.32a19.48,19.48,0,0,0,1.44-1.6,19.485,19.485,0,0,1,1.44-1.6l1.44-1.6q.48-.64.88-1.2a3.927,3.927,0,0,1,1.2-1.04,3.659,3.659,0,0,0,.96-1.12,9.156,9.156,0,0,1,1.6-1.76,8.733,8.733,0,0,0,.64-.72,8.728,8.728,0,0,1,.64-.72q.48-.64.88-1.2a9.749,9.749,0,0,1,1.04-1.2,2.856,2.856,0,0,0,.8-.8,5.244,5.244,0,0,1,.64-.8l.96-.96a1.88,1.88,0,0,0,.96-1.6,2.383,2.383,0,0,0-1.76,0,5.078,5.078,0,0,0-1.44.32,9.921,9.921,0,0,1-2.24.64,3.545,3.545,0,0,0-1.12.16,11.071,11.071,0,0,1-1.28.32,3.981,3.981,0,0,0-2.24,0,2.746,2.746,0,0,1-1.12.16,40.253,40.253,0,0,0-3.76,4l-4,4.8q-2,2.4-3.84,4.4a19.181,19.181,0,0,1-3.28,2.96,7.6,7.6,0,0,1-2.08.96,25.114,25.114,0,0,1-3.84,1.04,15.133,15.133,0,0,1-4.08.24,3.38,3.38,0,0,1-2.8-1.44l6.4-6.72L312-38.56l.8.96a2.84,2.84,0,0,0-.32-1.28L313.6-40l.96.8a7.594,7.594,0,0,0-.16-1.76q.16-.16.24-.16t.24-.32h.64l-.16.8a4.392,4.392,0,0,1,.24.56q.08.24.72.56a1.212,1.212,0,0,0-.16-1.12,5.244,5.244,0,0,1-.64-.8v-.64l.64-.16.48-1.28a8.533,8.533,0,0,0,2.4-2.4l.56-.56.56-.56,1.12-2.24,1.6-1.76L322.4-52a.922.922,0,0,0,.32-.64.71.71,0,0,0-.08-.32.71.71,0,0,1-.08-.32h-.48a1.624,1.624,0,0,1-.32-1.28,7.549,7.549,0,0,1-.96-4v-.48a2.84,2.84,0,0,1-.32-1.28V-61.6a8.993,8.993,0,0,1,.32-2.08,9.7,9.7,0,0,1,.8-2.72,2.93,2.93,0,0,1,.96-1.6,1.87,1.87,0,0,1,1.84-.56,2.17,2.17,0,0,1,1.52,1.2A3.551,3.551,0,0,1,328-63.52a.645.645,0,0,0,.64.32,9.815,9.815,0,0,0,1.36-.08,9.815,9.815,0,0,1,1.36-.08h.8l1.6-.64q.48-.16.88-.32t.72-.32l.8.32.48-.32a7.271,7.271,0,0,1,2.4-.64l.64-.32a3.127,3.127,0,0,1,.64-.24,3.366,3.366,0,0,1,.8-.08.326.326,0,0,0,.24-.08.633.633,0,0,1,.4-.08,19.253,19.253,0,0,1,3.68-.8l1.12-.48q.64-.16,1.12-.32a1.48,1.48,0,0,1,.96,0h.32a3.951,3.951,0,0,1,1.28-.4,3.951,3.951,0,0,0,1.28-.4,3.341,3.341,0,0,1,2.08,0l2.72-1.28h1.12l3.04-.96a.7.7,0,0,1,.96.16,1.434,1.434,0,0,1,.96-.96,2.84,2.84,0,0,1,1.28-.32,2.491,2.491,0,0,1,2.24-.96,4.787,4.787,0,0,1,1.6-.88q.8-.24,1.6-.56.96-.32,1.12.32a3.5,3.5,0,0,0,.72.8,3.5,3.5,0,0,1,.72.8l.48,1.92q0,.16.48.32a5.847,5.847,0,0,1,.48,2.88,1.208,1.208,0,0,0-.48.4,3.877,3.877,0,0,1-.48.56h.8a1.6,1.6,0,0,1-1.12,2.08,2.843,2.843,0,0,1-.8.24,1.433,1.433,0,0,0-.8.4,1.662,1.662,0,0,0,.16,1.28,1.972,1.972,0,0,1,.32,1.12l-.48,2.4a4.983,4.983,0,0,0-1.28,1.76,5.743,5.743,0,0,0-1.28,2.08l-.64.64a.955.955,0,0,0-.16.96,7.015,7.015,0,0,1,.8-1.44,4.065,4.065,0,0,0,1.28-2.24,5.244,5.244,0,0,0,.64-.8l.64-.96.64-.8a2.631,2.631,0,0,0,.08.64.9.9,0,0,1-.08.64,10.514,10.514,0,0,1-1.12,3.52,14.471,14.471,0,0,1-1.28,1.92l-.64.96-1.6,1.92-3.52,3.84-.8.8-1.28,1.12-1.28.96-.32.64-.48.64a3.182,3.182,0,0,0-1.04.8,4.127,4.127,0,0,1-.88.8,2.479,2.479,0,0,1-.24.72,5,5,0,0,1-.88.4q-.48.64-1.04,1.28a3.516,3.516,0,0,1-1.36.96v.64a6.02,6.02,0,0,1-1.76,1.92q-.32.48-.64.88a8.734,8.734,0,0,1-.64.72,32.731,32.731,0,0,1-2.72,2.72l-.48.48a16.868,16.868,0,0,1-.96,1.44,12.017,12.017,0,0,1-1.12,1.28l-1.12,1.76-.72.72a5.756,5.756,0,0,1-.88.72l-.96.8a1.731,1.731,0,0,0-.64.8,4.553,4.553,0,0,0-.96.8.927.927,0,0,1-.16.64h-.64a.927.927,0,0,1-.16.64,16.291,16.291,0,0,1-1.92,1.92v.64a.141.141,0,0,0-.16.16,6.3,6.3,0,0,0-2.24,2.56,4.337,4.337,0,0,1-1.6,1.44L332-12q-.32.8-.48.8a7.828,7.828,0,0,0-1.44,1.52q-.64.88-1.28,1.68-.32.32-.32.48a1.415,1.415,0,0,0-.4.64,1.415,1.415,0,0,1-.4.64,20.29,20.29,0,0,0-1.36,2.16q-.56,1.04-1.2,2.16l-.8,1.12A6.09,6.09,0,0,0,323.2.8l-.64,1.28a5.518,5.518,0,0,0-.8,1.6,4.588,4.588,0,0,1-1.92,2.56,9.619,9.619,0,0,1-.32,1.6h.8L324,6.24q.64-.32,1.2-.56a6.449,6.449,0,0,0,1.04-.56,9.063,9.063,0,0,0,1.44-.72,7.309,7.309,0,0,0,1.28-1.04,2.857,2.857,0,0,1,.8-.8l.96-.64a7.5,7.5,0,0,0,2.72-2.4q.32-.32,1.12-.96.48,0,.8-.64l.48-.48a17.843,17.843,0,0,0,2.72-2.24l2.08-1.92.56-.56.56-.56a8.933,8.933,0,0,0,1.2-.72q.56-.4,1.2-.88.48-.48.48-.64a3.139,3.139,0,0,1,1.44-1.44,5.757,5.757,0,0,0,.88-.72l.72-.72a3.444,3.444,0,0,0,.88-.88,8.244,8.244,0,0,1,.88-1.04l.64-.48,1.28-1.12a4.126,4.126,0,0,1,.8-.88q.48-.4.8-.72l.96-.8a.141.141,0,0,1,.16-.16,7.614,7.614,0,0,0,1.68-1.52,7.614,7.614,0,0,1,1.68-1.52,10.186,10.186,0,0,0,1.92-1.76q.8-.96,1.6-1.76a4.7,4.7,0,0,1,1.28-1.12l4.32-4.32a15.73,15.73,0,0,1,2.4-1.92l.32-.64.8.96a3.328,3.328,0,0,0-.16-1.28l.96-1.12.96.8a4.04,4.04,0,0,0,0-1.6l.32-.64a1.781,1.781,0,0,1,.8.16.71.71,0,0,1-.08.32,1.114,1.114,0,0,0-.08.48,2.34,2.34,0,0,0,.8,1.12,2.15,2.15,0,0,0-.64-1.92.633.633,0,0,0-.08-.4.326.326,0,0,1-.08-.24l.64-.32.8-1.12a9.389,9.389,0,0,0,2.24-2.4,6.008,6.008,0,0,1,.64-.56,6.008,6.008,0,0,0,.64-.56l2.08-1.92a4.8,4.8,0,0,0,1.04-1.04,8.243,8.243,0,0,1,.88-1.04h.8a.633.633,0,0,0,.08.4.633.633,0,0,1,.08.4l-.16.16h.16v-.16l.64-.48a4.7,4.7,0,0,0,1.28,1.12l-.48,1.92a1.031,1.031,0,0,0,.64-.48,2.507,2.507,0,0,1,.48-.64l.56,1.12a8.947,8.947,0,0,0,.56.96,1.286,1.286,0,0,1-.32,1.2,1.523,1.523,0,0,0-.32,1.36ZM364.32-50.56q-.96,0-.96.8A4.553,4.553,0,0,0,364.32-50.56Zm-9.44,9.44q-.8.32-.64.96a1.576,1.576,0,0,0,.4-.56,1.575,1.575,0,0,1,.4-.56A.141.141,0,0,0,354.88-41.12Zm-4,4.48a8.231,8.231,0,0,0,1.6-.64,2.631,2.631,0,0,1,.08-.64,2.629,2.629,0,0,0,.08-.64l-.96.32Zm-1.28,1.76q-.8,0-.8.48Zm-1.92,1.6q-.32.48,0,.8a3.719,3.719,0,0,0,.56-.72,4.421,4.421,0,0,0,.4-.88.538.538,0,0,0-.48.24A3.877,3.877,0,0,1,347.68-33.28Zm-.48.8a5.932,5.932,0,0,0-2.08,2.4A7.171,7.171,0,0,0,347.2-32.48Zm-2.24,2.56a2.445,2.445,0,0,0-1.28,1.6A6.863,6.863,0,0,0,344.96-29.92ZM325.44-48l.16-.16h-.16Zm16.48,21.6q-.32.32-.16.48a.652.652,0,0,0,.16-.48A1.969,1.969,0,0,0,343.2-28,4.722,4.722,0,0,0,341.92-26.4Zm-3.68-4a1.35,1.35,0,0,0,.8-1.12l.64-.32q-.64-.16-.64.32h-.48Zm.32,7.2a4.2,4.2,0,0,1-.4.64q-.24.32.08.8l1.28-1.44.96-1.44a.283.283,0,0,1,.32-.32.141.141,0,0,0-.16-.16.652.652,0,0,0-.16.48Zm-2.4-13.12a.283.283,0,0,0,.32-.32.283.283,0,0,0,.32-.32l-.16-.16a.652.652,0,0,1-.16.48.461.461,0,0,1-.32.16Zm.64,6.88q0,.16-.08.16t-.08.16q-.48,0-.16.48a.326.326,0,0,1,.08-.24.326.326,0,0,0,.08-.24l.16-.16Zm-6.24,15.52a2.506,2.506,0,0,0-.48.64,1.781,1.781,0,0,0-.16.8h.48a5.776,5.776,0,0,1,.72-1.12q.4-.48.88-.96a5.648,5.648,0,0,1,1.44-1.92l.32-.32,1.92-2.08a10.444,10.444,0,0,0,.96-1.12,16.867,16.867,0,0,0,.96-1.44l.32-.48a4.69,4.69,0,0,0-1.68,1.52,2.907,2.907,0,0,1-1.36,1.2l-.32.96-1.44,1.28a.866.866,0,0,1-.32.4q-.16.08-.16.4a4.868,4.868,0,0,1-.56.72l-.56.56-.48.48Zm-16.8,17.6a3.1,3.1,0,0,0,.48-1.92l-.8,1.76A.461.461,0,0,1,313.76,3.68Zm11.04-18.4.16-.16h-.16ZM324-13.6a.461.461,0,0,1,.16-.32H324Zm-.64,10.56q-.32,0-.32.48.32,0,.32-.48a2.064,2.064,0,0,0,.72-.8,3.045,3.045,0,0,1,.56-.8l1.44-2.72,2.88-3.84-.16-.16-.64.64a6.007,6.007,0,0,0-.56.64q-.24.32-.56.8l-2.72,4.16Zm-1.12-16.64a.424.424,0,0,0-.48.48A.424.424,0,0,0,322.24-19.68Zm-.64.8q-.48,0-.16.48a.326.326,0,0,1,.08-.24A.326.326,0,0,0,321.6-18.88Zm0,8.32v.16l.16-.16Zm-4.16-3.04a1.384,1.384,0,0,0,.64-1.12Zm.16,21.28q.32-.8.72-1.6t.72-1.6l1.6-2.4,1.6-2.88a1.42,1.42,0,0,0,.16-.64.645.645,0,0,0,.32-.64.922.922,0,0,0-.32.64h-.16A7.555,7.555,0,0,0,320.72.72q-.56,1.2-1.2,2.32l-.48,1.44a6.784,6.784,0,0,0-1.76,3.36A.461.461,0,0,0,317.6,7.68Zm17.12,6.4q0-.16.32-.48-.16,0-.16-.08t-.16-.08q0,.16-.32.48A.461.461,0,0,1,334.72,14.08Zm4.48-1.12a.707.707,0,0,0,.8-.8,2.507,2.507,0,0,0-.64.48l-1.28,1.28a2.912,2.912,0,0,0-.96,1.28,2.508,2.508,0,0,1-.64.48q-.32.16,0,.8a12.063,12.063,0,0,0,1.36-1.6,12.061,12.061,0,0,1,1.36-1.6Zm.96-.96a4.149,4.149,0,0,0,1.52-1.12,5.454,5.454,0,0,0,1.04-1.6,7.874,7.874,0,0,0-1.2,1.12q-.56.64-1.2,1.28Q340.16,11.68,340.16,12Zm3.36-3.52a.627.627,0,0,0,.48-.64Q343.52,8.16,343.52,8.48Zm3.2-3.84a1.9,1.9,0,0,0,.96-1.28,1.9,1.9,0,0,0-.96,1.12q-.96.64-.96,1.28a3.655,3.655,0,0,0-1.44,1.76,3.912,3.912,0,0,0,1.44-1.76A5.855,5.855,0,0,0,346.72,4.64Zm1.12-1.44a.627.627,0,0,0,.48-.64Q347.84,2.88,347.84,3.2Zm1.6-1.92a.645.645,0,0,0,.32-.64.922.922,0,0,0-.32.64.141.141,0,0,0-.16.16q-.64.32-.64.8a.141.141,0,0,0-.16.16l.16-.16q.64-.32.64-.8Zm2.4-2.56a3.879,3.879,0,0,1,.56-.48.538.538,0,0,0,.24-.48q0-.16-.16,0A1.553,1.553,0,0,0,351.84-1.28ZM356-5.92q.32-.48.64-.88a5.9,5.9,0,0,0,.64-1.04,3.912,3.912,0,0,0-1.44,1.76l-.48.48a1.861,1.861,0,0,0-.32.48l-.64.64a2.009,2.009,0,0,0-.48.8,1.432,1.432,0,0,0-.8.96l.8-.96a3.622,3.622,0,0,0,1.28-1.28A4.553,4.553,0,0,0,356-5.92Zm1.6-2.24a.627.627,0,0,0,.48-.64Q357.6-8.48,357.6-8.16Zm1.28-1.6a.922.922,0,0,0,.32-.64.645.645,0,0,0-.32.64q-.16,0-.16.08t-.16.08a.922.922,0,0,0-.32.64,4.769,4.769,0,0,0,.48-.64Zm88.64-24.16a2.645,2.645,0,0,1,0,3.04l.32,1.6-1.44,1.76.48.48a1.114,1.114,0,0,1-.08.48,1.114,1.114,0,0,0-.08.48,2.215,2.215,0,0,1-1.28,1.04,3.4,3.4,0,0,0-1.44.88l-.32-.64a7.015,7.015,0,0,1,.8-1.44q-.48-.32-.56.08a.748.748,0,0,1-.4.56h-.8l-1.76-2.24a10.126,10.126,0,0,1-2.24-.96.729.729,0,0,1-.4-.4.729.729,0,0,0-.4-.4,3.661,3.661,0,0,0-1.44-.64,2.456,2.456,0,0,0-.96.32,1.114,1.114,0,0,0-.48.08.568.568,0,0,1-.48-.08,10.526,10.526,0,0,0-2.88-.24q-1.44.08-2.72.24a12.076,12.076,0,0,1-2.24.16h-.16l-2.88.48a2.228,2.228,0,0,0-.96.16l-3.84.64h-.64a2.127,2.127,0,0,0-1.12.16,2.653,2.653,0,0,1-1.68.64,4.482,4.482,0,0,0-1.68.32l-1.76.32a.326.326,0,0,1-.24-.08.326.326,0,0,0-.24-.08q-.8.32-1.36.56a7.915,7.915,0,0,1-1.2.4,2.515,2.515,0,0,1-2.4-.48v-.8l-.8-.8-.32.48-.48.48.96.64-.32.96-1.44.8a4.006,4.006,0,0,1-1.36.4,1.7,1.7,0,0,0-1.2.72,4.766,4.766,0,0,0-.64-.48l-.32.64a4.5,4.5,0,0,0-.88.08,3.708,3.708,0,0,1-.72.08,4.978,4.978,0,0,1-1.76.64q-1.12.48-2.16.88t-2.16.72q-.8.32-1.44.64t-1.44.64q-.64.32-1.2.56a7.915,7.915,0,0,1-1.2.4,13.434,13.434,0,0,0-1.76.72q-.8.4-1.6.88l-1.28.48q-.64.96-1.2,1.84a20.507,20.507,0,0,0-1.04,1.84q-.8,1.28-1.52,2.56A15.586,15.586,0,0,0,378.08-8a6.26,6.26,0,0,1-.8,1.44l-.96,1.28L375.68-4q-.48,1.28-.88,2.4A9.189,9.189,0,0,1,373.6.64a3.109,3.109,0,0,0-.72,1.12,13.321,13.321,0,0,1-.56,1.28q-.64,1.12-1.36,2.16a19,19,0,0,0-1.36,2.32,4.82,4.82,0,0,1-.8,1.36,10,10,0,0,0-.96,1.36l-.48.96-2.72,5.44L364,17.92a1.289,1.289,0,0,0-.16.56q0,.24-.32.4a3.322,3.322,0,0,0-.72,1.04,3.322,3.322,0,0,1-.72,1.04l-.32.64-2.08,4.16-.96,2.08q-.48.8-.88,1.44a9.066,9.066,0,0,0-.72,1.44A10.441,10.441,0,0,0,356,33.76a2.594,2.594,0,0,0-1.12,1.6,12.031,12.031,0,0,1-.8,2.08l-.96,1.92-.32.48a14.65,14.65,0,0,1-1.28,2.8,21.79,21.79,0,0,0-1.44,2.96l-.48.8a2.008,2.008,0,0,0-.48.8,4.038,4.038,0,0,1-.48.96,1.781,1.781,0,0,1-.16.8l-.32.64a2.464,2.464,0,0,0-.4.96,1.433,1.433,0,0,1-.4.8,15.716,15.716,0,0,1-.8,1.68,9.775,9.775,0,0,0-.8,2,7.759,7.759,0,0,1-.56,1.68,16.676,16.676,0,0,1-.88,1.68,2.676,2.676,0,0,1-2.56,1.6,1.3,1.3,0,0,1,.32-.96l.64-.64.64-1.6,1.28-2.56a7.1,7.1,0,0,1,.64-1.28,7.1,7.1,0,0,0,.64-1.28,9.887,9.887,0,0,0,.48-1.52,9.886,9.886,0,0,1,.48-1.52.461.461,0,0,0,.16-.32,1.228,1.228,0,0,1,.16-.48A4.4,4.4,0,0,0,348.32,46a13.034,13.034,0,0,1,.8-2q.64-1.28,1.2-2.72a16.191,16.191,0,0,1,1.36-2.72,12.031,12.031,0,0,1,.8-2.08q.48-.96.96-2.08l2.4-4.64a25.316,25.316,0,0,0,1.44-2.64q.64-1.36,1.12-2.64a1.623,1.623,0,0,0,.32-.88,1,1,0,0,1,.32-.72q-.48,0-.48.32a10.323,10.323,0,0,1-1.36,2.48,6.979,6.979,0,0,0-1.2,2.64,1.555,1.555,0,0,1-.32.8,7.822,7.822,0,0,0-.48.8,16.664,16.664,0,0,0-.88,1.68q-.4.88-.72,1.68l-3.2,6.4q-.64,1.28-1.12,2.4a21.928,21.928,0,0,1-1.12,2.24l-2.88,6.56q-.64,1.44-1.2,2.88a23.391,23.391,0,0,1-1.36,2.88l-1.12,2.4-.96.48a1.322,1.322,0,0,1-1.2-.64,4.136,4.136,0,0,0-1.04-1.12,5.447,5.447,0,0,1,.64-2.88q1.12-2.72,2.08-5.36t2.24-5.36l2.4-5.6,3.2-7.04,1.76-3.84q.8-1.76,1.6-3.36t1.6-3.36l3.68-7.36q2.56-5.6,5.28-10.4Q364,.96,365.2-1.28t2.48-4.48a3.328,3.328,0,0,0,.16-1.28L366.56-4.8q-4.64,8-8.64,16.32l-2.4,4.8q-.8,1.6-1.52,3.12t-1.52,3.12L350.08,28l-2.4,4.96a71.736,71.736,0,0,0-3.36,7.52l-2.4,5.28L340,50.56l-.8,1.76-1.44,3.52-.48.8-.48-.48a8.127,8.127,0,0,1-1.76-4.48q0,.16-.32.16a5.353,5.353,0,0,1-.56-2q-.08-1.04-.08-2.16a7.091,7.091,0,0,1,.32-2.24l.64-1.92a2.592,2.592,0,0,0,.48-1.6,21.364,21.364,0,0,1,1.12-2.96q.64-1.36,1.28-2.96l1.44-3.04.32-1.6a.922.922,0,0,1,.32-.64l.32-.64a2.014,2.014,0,0,0,.8-1.12,6.252,6.252,0,0,1,.48-1.28,7.369,7.369,0,0,1,1.76-2.4l.48-1.6a.924.924,0,0,1,0-1.04,4.706,4.706,0,0,0,.48-1.2q.32-.96.72-1.92a11.315,11.315,0,0,1,1.04-1.92,3.723,3.723,0,0,0,.64-.96,9.9,9.9,0,0,1,1.04-2.72,9.9,9.9,0,0,0,1.04-2.72,1.064,1.064,0,0,1,.24-.64,4.2,4.2,0,0,0,.4-.64l2.4-4.96a241.128,241.128,0,0,1,11.6-22.48q6.32-10.8,14.32-23.44l.64-.96.64-1.28,1.28-1.92.8-1.12q1.76-2.08,3.52-4.48a1,1,0,0,0,.24-.4.729.729,0,0,1,.4-.4l1.44-1.92,1.28-1.6,3.2-3.84a1.228,1.228,0,0,0,.16-.48q0-.16.32-.48a3.677,3.677,0,0,0,1.28-1.28,14.56,14.56,0,0,1,1.12-1.6,14.561,14.561,0,0,0,1.12-1.6q.48-.8,1.12-1.76a6.363,6.363,0,0,0,2.08-1.6q.8-.96,1.6-2.08a3.1,3.1,0,0,1,1.44-1.44,7.241,7.241,0,0,1,1.28-1.28q.64-.48,1.44-1.12l.8-1.12a.866.866,0,0,0,.4-.32,2.277,2.277,0,0,1,.4-.48q.64-.48,1.2-.96a5.881,5.881,0,0,1,1.2-.8h1.12a1.781,1.781,0,0,0-.16-.8,10.366,10.366,0,0,1,3.2-2.72.633.633,0,0,1,.4.08.326.326,0,0,0,.24.08v-.48l.96-.48v-.16a7.015,7.015,0,0,0,1.36-1.04,11.185,11.185,0,0,1,1.2-1.04,3.718,3.718,0,0,1,.72-.56,3.719,3.719,0,0,0,.72-.56,9.747,9.747,0,0,1,1.2-1.04,3.485,3.485,0,0,1,1.36-.56.927.927,0,0,0,.64-.16.922.922,0,0,1,.64-.32,1.42,1.42,0,0,0,.64-.16,3.556,3.556,0,0,0,1.12-.48,7.1,7.1,0,0,1,1.28-.64h.64l.8-.48a6.452,6.452,0,0,1,1.04-.56,6.45,6.45,0,0,0,1.04-.56,4.759,4.759,0,0,1,2.4-.64,14.236,14.236,0,0,0,2.72-.32,4.162,4.162,0,0,1,1.28-.16.443.443,0,0,1,.08.64,4.2,4.2,0,0,0-.4.64.652.652,0,0,1,.48-.16,1.346,1.346,0,0,1,1.92,0,2.228,2.228,0,0,1,.16.96h.32l1.28-1.12a1.289,1.289,0,0,0,.56.16.543.543,0,0,1,.4.16,4.866,4.866,0,0,0,2.56,1.28q.96.8,1.44,1.12a5.243,5.243,0,0,1,.8.64,7.109,7.109,0,0,1,.72.88q.4.56,1.2,2a1.781,1.781,0,0,0-.16.8,10.539,10.539,0,0,1,1.12,1.68,15.562,15.562,0,0,1,.48,2l.32,1.44a1.415,1.415,0,0,0-.4.64,1.415,1.415,0,0,1-.4.64l.64.64a2.019,2.019,0,0,1-.64,2.08,6.392,6.392,0,0,1-1.84.88,4.639,4.639,0,0,0-1.68.88q-.32.16-.72.32a.848.848,0,0,1-.72,0,2.578,2.578,0,0,0-2.24.8l-3.68.96a1.249,1.249,0,0,1-1.04.72,5.849,5.849,0,0,0-1.52.4,6.45,6.45,0,0,1-1.04.56,7.915,7.915,0,0,1-1.2.4,6.255,6.255,0,0,0-1.52.88,5.588,5.588,0,0,1-1.68.88,2.931,2.931,0,0,0-1.36.64,5.88,5.88,0,0,1-1.2.8l-.96.64a5.246,5.246,0,0,0-.8.64,3.363,3.363,0,0,1-1.76,1.12,5.9,5.9,0,0,0-1.04.64q-.4.32-.88.64a6.8,6.8,0,0,1-.96.64,18.709,18.709,0,0,1-1.92,1.6l-1.6,1.12a2.04,2.04,0,0,0-.96.96,2.786,2.786,0,0,1-.88,1.04,8.247,8.247,0,0,0-1.04.88l-.96.96-1.92,1.6a4.127,4.127,0,0,1-.8.88,3.182,3.182,0,0,0-.8,1.04,5.853,5.853,0,0,1-.96,1.12,8.542,8.542,0,0,0-1.6,2.24.927.927,0,0,1,.64-.16q-.16,0-.48.32l-.96,1.12q-.64.8-2.16,2.32l-3.28,3.28-3.28,3.28q-1.52,1.52-2.16,2.32,2.88-1.44,6.8-2.96t8.16-3.12q4.24-1.6,8.56-2.96t8-2.64a13.271,13.271,0,0,1,4.32-.88,41.864,41.864,0,0,1,4.48.08A20.351,20.351,0,0,1,440-45.68a19.811,19.811,0,0,1,4.8,2.8q.32.64.64,1.2a11.009,11.009,0,0,1,.64,1.36q.48,1.28.88,2.64t.72,2.64a1.772,1.772,0,0,1-.08.56A1.773,1.773,0,0,0,447.52-33.92ZM434.24-88.96h.16v-.16h-.16ZM413.12-77.12l.16-.16h-.16Zm-.64,19.04q-1.76,1.6-1.76,2.4a6.992,6.992,0,0,0,1.12-1.04A2.93,2.93,0,0,0,412.48-58.08ZM337.76,44.48l.32-.32a.461.461,0,0,1-.32-.16.652.652,0,0,1-.16.48Zm4.96-11.52a5.236,5.236,0,0,0,.32-1.28,2.34,2.34,0,0,0-.8,1.12,4.28,4.28,0,0,0-.32,1.6,2.759,2.759,0,0,0,.4-.8A1.415,1.415,0,0,1,342.72,32.96Zm.48-1.76a.461.461,0,0,0,.16-.32ZM370.24,1.6q.48,0,.48-.64-.48.32-.48.64a1.521,1.521,0,0,0-.64,1.28q-.8,1.12-1.44,2.08t-1.28,2.08q-.96,1.76-1.76,3.28t-1.6,3.28l-1.28,2.56q-.64,1.28-1.44,2.56a2.578,2.578,0,0,0-.32,1.12,3.791,3.791,0,0,0-1.44,2.88l.16-.16.64-1.28q.32-.64.64-1.44l1.28-1.92A17.888,17.888,0,0,0,362.88,16,16.568,16.568,0,0,1,364,13.84a8.638,8.638,0,0,0,.96-2.16l1.28-2.56,3.2-5.6a1.42,1.42,0,0,1,.16-.64A1.521,1.521,0,0,0,370.24,1.6ZM371.2,0a.739.739,0,0,0,.48-.8A.94.94,0,0,0,371.2,0ZM376-8.8q.32-.48.64-.88a.916.916,0,0,0,0-1.04,5.666,5.666,0,0,1-.96,1.76,4.066,4.066,0,0,0-.8,2.08h.32A10.629,10.629,0,0,0,376-8.8Zm1.44-26.24a1.253,1.253,0,0,0,1.12-1.44A2.351,2.351,0,0,0,377.44-35.04Zm1.44,20.64-.48.64h.16l.32-.48Zm1.6-24.64.32-.32a.461.461,0,0,0-.32.16Zm.48,21.12q0-.16.08-.16t.08-.16A.461.461,0,0,0,380.96-17.92Zm5.12-1.44a4.554,4.554,0,0,1-.96-.8q0,.96.64,1.12Zm20.32-42.4a.326.326,0,0,0-.24.08.326.326,0,0,1-.24.08l.16.16ZM402.24-47.2a2.507,2.507,0,0,0-.48.64,7.824,7.824,0,0,1-.48.8,1.851,1.851,0,0,0,1.12-.56,8.729,8.729,0,0,1,.64-.72l1.44-1.6.64-.64a7.9,7.9,0,0,1,1.2-1.76q.72-.8,1.52-1.6a16.868,16.868,0,0,1,.96-1.44,12.016,12.016,0,0,1,1.12-1.28,1.228,1.228,0,0,1-.48.16.461.461,0,0,0-.32.16,19.147,19.147,0,0,1-2.08,2.08,4.554,4.554,0,0,1-.8.96Zm-1.76-17.44h.16l.32-.32-.16-.16Zm-4.64,5.6q-.48.32-.32.64ZM387.68-48.8a.627.627,0,0,0,.48-.64Q387.68-49.12,387.68-48.8Zm3.68,5.76q1.12-1.44,2.24-2.8t2.24-2.64l5.28-6.56a19.834,19.834,0,0,1,1.76-2.4,19.147,19.147,0,0,1,2.08-2.08l.48-.48a.326.326,0,0,0-.08-.24.326.326,0,0,1-.08-.24.538.538,0,0,0-.48.24,3.876,3.876,0,0,1-.48.56,2.507,2.507,0,0,0-.48.64,2.507,2.507,0,0,1-.48.64,13.718,13.718,0,0,0-1.76,1.76l-.8,1.12a34.364,34.364,0,0,0-3.2,3.68q-1.92,2.56-3.76,5.04a42.406,42.406,0,0,1-4.08,4.72,5.383,5.383,0,0,0-.8,1.28q.48-.16.48-.32a2.786,2.786,0,0,0,1.04-.88A8.246,8.246,0,0,1,391.36-43.04ZM445.6-26.72h-.32a.652.652,0,0,0-.16.48Zm.8,0q-.16,0-.16.08t-.16.08l.16.16.16-.16Zm84.48-17.76a.954.954,0,0,1-.16.96,2.009,2.009,0,0,0-.48.8,1.493,1.493,0,0,1-1.12,1.12v.32l-1.6,1.76a9.747,9.747,0,0,1-1.2,1.04q-.56.4-1.2.88a3.622,3.622,0,0,0-1.28,1.28,4.625,4.625,0,0,1-1.44,1.44,10.6,10.6,0,0,0-1.36,1.28q-.56.64-1.2,1.44a6.991,6.991,0,0,1-1.04,1.12q-.56.48-1.2.96l-1.28.96h-.64a.141.141,0,0,1-.16.16,1.535,1.535,0,0,1-.48,1.12,15.841,15.841,0,0,1-1.68,2q-.88.88-1.84,1.68,0-.16-.32-.16a.141.141,0,0,1-.16-.16l1.12-1.76-.64.32-2.4,2.4q-.32.16-.32.32a.461.461,0,0,1-.16.32l-1.28,1.6-.48.8a2.138,2.138,0,0,0,1.12-.88,2.56,2.56,0,0,1,.8-.88A13.716,13.716,0,0,0,510.56-24a.633.633,0,0,1,.4.08.326.326,0,0,0,.24.08q0,.32-.16.32l-1.44,1.76L508.16-20l-1.6,1.6-1.44,1.6-.96,1.12A17.6,17.6,0,0,0,502.4-14a21.862,21.862,0,0,0-1.6,2l-.32.32a10.6,10.6,0,0,0-1.36,1.28,5.653,5.653,0,0,1-1.36,1.12l-.64.8-3.2,3.36-2.4,2.56L488.32.32,486.4,2.24l-1.28,1.12a1.253,1.253,0,0,1-.32.24.866.866,0,0,0-.32.4,7.1,7.1,0,0,1-3.04,2.4L479.2,7.84l-1.12.8a2.272,2.272,0,0,1-1.92.32q-.8.48-1.12.64l-.16-.16-2.24.32-1.6-1.12a.141.141,0,0,1-.16.16h-.48a6.824,6.824,0,0,1-2.56-4.48h-.64A9.081,9.081,0,0,1,465.6.48a7.022,7.022,0,0,1-.48-1.2,5.007,5.007,0,0,1-.16-1.36,15.183,15.183,0,0,0-.24-2.64,7.1,7.1,0,0,1,.08-2.8v-.32a1.772,1.772,0,0,0-.08-.56.729.729,0,0,1,.08-.56,3.863,3.863,0,0,1,.48-1.28,21.866,21.866,0,0,0-2,1.6q-.88.8-1.84,1.6a.326.326,0,0,0-.08-.24.326.326,0,0,1-.08-.24q.32-.48.64-.88a5.9,5.9,0,0,0,.64-1.04q-.32.16-.4.08t-.24.08l-2.4,2.72a.326.326,0,0,1-.08.24.326.326,0,0,0-.08.24.877.877,0,0,0-.88.56.877.877,0,0,1-.88.56,1.146,1.146,0,0,1-.64,1.12A3.365,3.365,0,0,0,456-2.4a2.824,2.824,0,0,0,.96-.72,10.9,10.9,0,0,1,.8-.88,8.723,8.723,0,0,0,.64-.72,8.728,8.728,0,0,1,.64-.72.141.141,0,0,0,.16.16,1.266,1.266,0,0,1,.16-.8l1.28-.96q.16,0,.48.32a11.883,11.883,0,0,1-2,2.64,17.267,17.267,0,0,0-2.16,2.64,1.849,1.849,0,0,0-1.2.72q-.4.56-.88,1.2l-2.72,2.56a6.053,6.053,0,0,0-1.92,1.28,6.053,6.053,0,0,1-1.92,1.28q-.8.32-1.6.72t-1.6.72a5.606,5.606,0,0,1-1.76.32,2.84,2.84,0,0,1-1.28.32,1.99,1.99,0,0,1-1.12,0,5.61,5.61,0,0,1-2.08-.8,4.625,4.625,0,0,1-1.2-.88l-1.04-1.04q-.32-.32-.32-.48a1.228,1.228,0,0,0-.16-.48,1.788,1.788,0,0,1-.96-1.76l-.64-.48a.141.141,0,0,1-.16-.16,15.83,15.83,0,0,1-1.04-2.16,6.418,6.418,0,0,1-.4-2.32q-.16-.64-.32-1.2a4.351,4.351,0,0,1-.16-1.2,10.55,10.55,0,0,1,1.12-6.4,4.9,4.9,0,0,0,.48-.88q.16-.4.32-.88l.64-1.6.64-1.6,2.24-4a4.821,4.821,0,0,1,.8-1.36,5.881,5.881,0,0,0,.8-1.2q.64-.96,1.2-1.84a13.987,13.987,0,0,0,1.04-2,14.257,14.257,0,0,1,2.72-3.52q0-.16.32-.48a6.752,6.752,0,0,1,.96-1.84q.64-.88,1.28-1.68l.64-.8a1.861,1.861,0,0,1,.32-.48.652.652,0,0,0,.16-.48,4.756,4.756,0,0,1,.72-1.28q.4-.48.88-.96a2.191,2.191,0,0,0,.8-1.28l.64-.64q.96-1.6,1.84-3.28a12.08,12.08,0,0,1,2.16-2.96l.32-1.28,1.6-1.92q.32-.64.64-1.2t.64-1.2l1.28-2.88.64-1.92a4.491,4.491,0,0,0,.16-2.08v-1.92a5.517,5.517,0,0,1,.8-1.6,7.059,7.059,0,0,1,2.4.96,6.091,6.091,0,0,1,1.12,1.6,16.211,16.211,0,0,1,2.24,4.8.633.633,0,0,0,.08.4.633.633,0,0,1,.08.4q.16,1.28.24,2.32a14.136,14.136,0,0,0,.4,2.32v.48a6.04,6.04,0,0,0-.32,1.92,6.04,6.04,0,0,1-.32,1.92l-.48,2.88-.96,3.36-.64,1.44-.48,1.44-.96,1.92-1.28,3.68a2.856,2.856,0,0,0-.24.72,1.394,1.394,0,0,1-.4.72,1.575,1.575,0,0,0-.4.56,4.393,4.393,0,0,1-.24.56l-.48,1.12a9.063,9.063,0,0,0-1.04,1.6q-.4.8-.72,1.6l-1.28,1.92q-1.76,2.72-3.52,4.96l-.64.64V-16l-1.76,3.04-1.28,1.6a10.466,10.466,0,0,0-.64,1.12l-.64,1.28a1.3,1.3,0,0,0,.96-.32l.64-.64,1.6-1.6,2.08-2.24a.461.461,0,0,1,.16-.32,2.619,2.619,0,0,0,1.2-.88q.4-.56.88-1.2l1.12-.96.48-.48.96-1.12h.64a.71.71,0,0,0-.08-.32.71.71,0,0,1-.08-.32l.64-.8a6.372,6.372,0,0,0,1.92-1.6,1.046,1.046,0,0,1,.48-.48,1.031,1.031,0,0,0,.48-.64,5.224,5.224,0,0,0,1.68-1.92,5.224,5.224,0,0,1,1.68-1.92,1.407,1.407,0,0,0,.56-.56,3.72,3.72,0,0,1,.56-.72l3.52-3.2.16-.32,2.72-3.04L475.52-36l.64-.48a1.462,1.462,0,0,0,.96-1.12q0-.16.48-.64l.64-.64q.8-.96,1.44-1.84t1.28-1.84l.8-1.12,1.6-2.24q.8-.96,1.52-2t1.52-2.16a5.774,5.774,0,0,1,.72-1.12q.4-.48.72-.8l2.08-2.4.64-.8a3.535,3.535,0,0,1,1.76-2.4,7.824,7.824,0,0,0,.48-.8,2.507,2.507,0,0,1,.48-.64l1.92-2.56a2.135,2.135,0,0,1,.4-.56l.56-.56q1.76-1.92,3.36-4a39.344,39.344,0,0,1,3.36-3.84,4.411,4.411,0,0,1,.88-.16,3.864,3.864,0,0,1,1.04.32.652.652,0,0,1,.16.48v.32a.633.633,0,0,0,.4-.08.326.326,0,0,1,.24-.08.461.461,0,0,1,.32.16l1.12,1.76a1.114,1.114,0,0,1-.08.48,1.114,1.114,0,0,0-.08.48,3.182,3.182,0,0,1-.8,1.04,1.152,1.152,0,0,0-.32,1.2l1.76-2.08a6.876,6.876,0,0,1,1.28,4.48,1.266,1.266,0,0,1,.16.8,6.811,6.811,0,0,1-.8,3.04l-1.76,3.68q-.8,1.28-1.44,2.48a20.952,20.952,0,0,1-1.44,2.32l-3.04,4.48a14.357,14.357,0,0,0-1.92,3.52,11.264,11.264,0,0,1-.72.96,11.252,11.252,0,0,0-.72.96,6.449,6.449,0,0,0-.56,1.04,3.322,3.322,0,0,1-.72,1.04,6.8,6.8,0,0,0-.64.96q-.48.64-.88,1.2a8.936,8.936,0,0,0-.72,1.2l-.16.16-.64,1.44a.922.922,0,0,0-.32.64,5.415,5.415,0,0,1-.96,1.92,6.367,6.367,0,0,0-.96,1.6l-.48.48-.48.64-2.24,4-1.44,3.04-.48.8a3.71,3.71,0,0,0-.8,1.6,7.183,7.183,0,0,1-1.12,1.76,10.63,10.63,0,0,0-.8,1.92,6.024,6.024,0,0,1-1.44,2.4,3.522,3.522,0,0,0-.8,1.92L476.8-4.48a.725.725,0,0,0,.8-.16l.64-.48a20.323,20.323,0,0,1,2.88-2.56q2.24-1.76,3.04-2.4A121.825,121.825,0,0,0,496.8-20.16q5.76-5.28,10.96-10.48t10-10.08a109.262,109.262,0,0,1,9.6-8.72q1.44-1.28,2-.08a16.38,16.38,0,0,0,1.2,2.16l-.48,1.76a.4.4,0,0,1,0,.64v.8a.461.461,0,0,1,.32-.16A1.228,1.228,0,0,0,530.88-44.48ZM508.32-62.72a1.42,1.42,0,0,0-.16.64.461.461,0,0,1,.32-.16A1.228,1.228,0,0,0,508.32-62.72Zm-2.08,4.96a11.876,11.876,0,0,0-.88,1.36,5.22,5.22,0,0,0-.56,1.52l1.12-1.76a2.578,2.578,0,0,0,.32-1.12.627.627,0,0,0,.48-.64Q506.24-58.08,506.24-57.76Zm-7.2,11.04a.922.922,0,0,0-.32.64,1.42,1.42,0,0,1-.16.64q.32-.32.32-.48l1.28-1.76q.96-1.28,1.84-2.56t1.68-2.56v-.48q.8-.8.8-1.12h-.16a1.755,1.755,0,0,0-.64,1.12l-1.28,1.6q-.48.64-.88,1.28t-.88,1.44ZM496-41.6a.141.141,0,0,0,.16-.16A4.293,4.293,0,0,0,497.6-44q.32-.16.32-.8a.922.922,0,0,0-.32.64l-.48.48a7.015,7.015,0,0,0-.8,1.44.652.652,0,0,0-.16.48Zm-.32.48q-.64.64-.48.96Q495.68-40.32,495.68-41.12Zm-7.52,12.16a1.266,1.266,0,0,0-.16.8l.48-.64.8-1.28q.8-1.28,1.52-2.48t1.52-2.48l.64-.96,1.6-3.04a.71.71,0,0,1,.08-.32.71.71,0,0,0,.08-.32,1.253,1.253,0,0,0-.24.32.866.866,0,0,1-.4.32,14.465,14.465,0,0,0-1.28,1.92,9.878,9.878,0,0,1-1.12,1.76,6.367,6.367,0,0,0-.96,1.6q-.64,1.28-1.2,2.48A14.637,14.637,0,0,1,488.16-28.96ZM463.52-36.8a.645.645,0,0,0-.32-.64A.922.922,0,0,0,463.52-36.8Zm-12.64,2.08q-.48.32-.48.48l.48-.48a5.577,5.577,0,0,0,1.6-2.88,16.867,16.867,0,0,1-.96,1.44A3.518,3.518,0,0,0,450.88-34.72ZM440.64-8.96a.739.739,0,0,0,.48-.8A.94.94,0,0,0,440.64-8.96Zm2.24-3.68q.8-1.28,1.52-2.32t1.52-2.16l1.92-3.04,2.4-3.52,3.84-5.92q.96-1.76,2.08-3.52t2.08-3.52l.96-2.56-.32.32q-1.44,2.56-2.88,5.04a40.746,40.746,0,0,1-3.2,4.72,13.157,13.157,0,0,0-1.12,1.92q-.8,1.28-1.52,2.48t-1.52,2.48q-.48.64-.96,1.2a5.882,5.882,0,0,0-.8,1.2,74.267,74.267,0,0,0-4.48,7.36q-.32.64-.56,1.2t-.56,1.2l.8-.8a2.464,2.464,0,0,0,.4-.96A1.433,1.433,0,0,1,442.88-12.64Zm4.64,2.72a16.853,16.853,0,0,1,.96-1.44,12.017,12.017,0,0,1,1.12-1.28q.48-.8.88-1.52a4.691,4.691,0,0,1,1.2-1.36l.32-.32a6.8,6.8,0,0,1,.88-1.76q.56-.8,1.04-1.6.8-1.12,1.44-2.08a7.112,7.112,0,0,0,.96-2.24l.48-.64a26.835,26.835,0,0,0,1.6-2.56l.8-1.6q.48-.64.88-1.28a9.065,9.065,0,0,0,.72-1.44,5.231,5.231,0,0,1,.32-.56q.16-.24-.16-.72l-.64,1.28A28.241,28.241,0,0,1,458.56-28a28.246,28.246,0,0,0-1.76,3.04l-.32.48-2.24,3.36a17.887,17.887,0,0,0-1.12,1.92,6.752,6.752,0,0,1-1.28,1.76q-1.12,1.44-2.08,2.96t-1.92,3.12l-.8,1.92A7.438,7.438,0,0,0,445.92-8l-.96,1.6.16.32.48-.64.8-1.6.8-1.12Q447.2-9.6,447.52-9.92Zm14.24-8.64q.32-.32-.16-.64A.927.927,0,0,0,461.76-18.56Zm2.08,7.68a2.04,2.04,0,0,0,.96-.96A1.434,1.434,0,0,0,463.84-10.88Zm6.08-18.4h-.16v.16h.16Zm1.76.48-.8-.64a3.546,3.546,0,0,1,.16,1.12Zm.48-.96q.48-.16.56-.4a1.576,1.576,0,0,1,.4-.56A1.434,1.434,0,0,0,472.16-29.76ZM477.92-9.6a.645.645,0,0,0,.32-.64A.645.645,0,0,0,477.92-9.6Zm2.88-5.92a.461.461,0,0,1-.16.32h.16Zm6.88-22.24q-.8.96-1.52,1.76a6.471,6.471,0,0,0-1.2,2.08q.48,0,.48-.16a2.135,2.135,0,0,1,.4-.56,2.135,2.135,0,0,0,.4-.56l.96-1.44.64-.96Zm-2.72,14.24q-.48.96-.88,1.92a7.292,7.292,0,0,1-1.04,1.76,1.045,1.045,0,0,0-.32,1.28l.64-.8a1.678,1.678,0,0,1,.24-.88,3.719,3.719,0,0,1,.56-.72q.64-1.12,1.12-2.16a9.052,9.052,0,0,1,1.28-2A17.009,17.009,0,0,0,487.84-28a.461.461,0,0,1-.32.16l-1.6,2.72ZM484-32.48h.48a2.228,2.228,0,0,0,.16-.96l-.16-.16Zm-7.36,13.92.32-.32a16.753,16.753,0,0,0,1.36-2.24q.56-1.12,1.2-2.24l3.84-6.88a.652.652,0,0,0,.16-.48h-.16a19.108,19.108,0,0,0-1.2,1.68,8.318,8.318,0,0,0-.88,1.84l-1.6,2.72-2.4,4.16a2.464,2.464,0,0,0-.4.96A2.843,2.843,0,0,1,476.64-18.56ZM494.72-7.68a.652.652,0,0,0,.16-.48h-.16q0,.32-.16.32Zm9.44-9.92a.461.461,0,0,0,.16-.32q0,.16-.08.16T504.16-17.6Zm1.12-1.28a6.8,6.8,0,0,0,.96-.64.926.926,0,0,0,.16-.64A4.7,4.7,0,0,0,505.28-18.88Zm1.6-7.04q.64.16.8-.64a4.389,4.389,0,0,1-.56.24A.37.37,0,0,0,506.88-25.92Zm1.12-.96q.16,0,.48-.32a.461.461,0,0,1-.32-.16A.652.652,0,0,0,508-26.88Zm7.36-8.32a.141.141,0,0,1-.16.16l.16.16.16-.16Zm-1.44,1.76q0,.32-.16.32a.461.461,0,0,0,.32.16v-.48Zm2.72,2.88.32-.32q.16-.16,0-.64a10.6,10.6,0,0,1-1.28,1.36,3.516,3.516,0,0,0-.96,1.36,6.7,6.7,0,0,0-2.24,2.4l.48-.32a1.5,1.5,0,0,0,.8-.96l.96-1.12.64-.48q.16-.32.32-.32t.32-.32Zm7.68-7.2a.141.141,0,0,1-.16-.16,4.551,4.551,0,0,1,.8-.96h-.16q-.16,0-.16-.08t-.16-.08a5.755,5.755,0,0,1-.72.88,2.183,2.183,0,0,0-.56,1.04,1.576,1.576,0,0,1,.56-.4A4.39,4.39,0,0,0,524.32-37.76Zm3.84-4,.56-.56.56-.56Q528.48-42.88,528.16-41.76Zm42.08-3.84q.8.8-.48,2.08l-3.68,4.8-.64.48a7.822,7.822,0,0,0-.48.8,3.851,3.851,0,0,1-.96.96l-1.28,1.44q-.16-.16-.64,0a.461.461,0,0,0-.16.32q0,.16-.32.48l.96-.48-.32.32v.16l-1.12,1.28a8.5,8.5,0,0,1-1.36,1.92q-.88.96-1.68,1.76l-.48.48a3.515,3.515,0,0,1-.96,1.36q-.64.56-1.28,1.2-.32.32-.32.48t-.32.48l-.8.8q-.48.16-.8,1.28l-.64.8a1.408,1.408,0,0,0-.56.56,3.719,3.719,0,0,1-.56.72q-.96,1.28-2.08,2.56L547.04-16a14.555,14.555,0,0,1-1.12,1.6,4.722,4.722,0,0,1-1.6,1.28l-.64,1.28a.261.261,0,0,0-.32-.08.261.261,0,0,1-.32-.08,10.771,10.771,0,0,1,1.76-2.24l.64-.8q.96-1.12,1.76-2.16t1.76-2.16a2.008,2.008,0,0,0,.48-.8q.16,0,.16-.08t.16-.08l.8-.96q.8-.8.8-.96l-1.76,1.92-.16.16-1.28,1.44a9.744,9.744,0,0,0-1.04,1.2,9.743,9.743,0,0,1-1.04,1.2l-3.04,3.36-3.36,4.48a2.312,2.312,0,0,1,.72-.72,2.312,2.312,0,0,0,.72-.72,6.007,6.007,0,0,0,.56-.64,2.9,2.9,0,0,1,.72-.64l.48-.48a.912.912,0,0,1-.32.96,2.132,2.132,0,0,1-.8.96l-2.56,3.2a20.9,20.9,0,0,1-1.92,2.24,4.923,4.923,0,0,0-.8,1.04q-.32.56-.64,1.2a.461.461,0,0,1-.32.16q-.16,0-.32.32a3.677,3.677,0,0,0-1.28,1.28,14.555,14.555,0,0,1-1.12,1.6l-1.28,1.44A6.543,6.543,0,0,0,529.84,4q-.56.64-1.36,1.44l-.96,1.12q-.96.96-1.84,2t-2,2.16a6.149,6.149,0,0,1-.96,1.04q-.48.4-1.28,1.04a3.879,3.879,0,0,1-.56.48,3.879,3.879,0,0,0-.56.48,1.429,1.429,0,0,1-.88.8,3.691,3.691,0,0,0-1.04.48l-1.92,1.12a1.114,1.114,0,0,0-.48.08.568.568,0,0,1-.48-.08q0-.16-.08-.16t.08-.32a2.228,2.228,0,0,1-.96.16l-.64-.64a2.784,2.784,0,0,1-1.12.48,5.332,5.332,0,0,1-3.68,1.28,3.972,3.972,0,0,1-3.52-.32.866.866,0,0,1-.4-.32q-.08-.16-.4-.16a11.157,11.157,0,0,1-2.32-.88,7.914,7.914,0,0,1-2-1.2,6.02,6.02,0,0,1-1.76-1.92,6.26,6.26,0,0,1-.8-1.44l-.64-1.6a2.4,2.4,0,0,1,.16-2.24.881.881,0,0,1-.24-1.04,3.448,3.448,0,0,0,.24-1.36,8.495,8.495,0,0,1,.08-1.2,9.819,9.819,0,0,0,.08-1.36q0-.64.32-.8V.64a1.034,1.034,0,0,1-.08-1.04q.24-.56.4-1.04l.8-1.12q.16-.48.32-1.12a1.991,1.991,0,0,0,0-1.12,1.208,1.208,0,0,1,.4-.48,3.879,3.879,0,0,0,.56-.48l.32-.48a5.169,5.169,0,0,0,.64-1.52,3.828,3.828,0,0,1,.8-1.52,4.392,4.392,0,0,0,.24-.56,3.506,3.506,0,0,1,.4-.72.971.971,0,0,1,.24-.48,2.8,2.8,0,0,0,.4-.8,3.851,3.851,0,0,1,.4-1.04q.24-.4.56-1.04a3.722,3.722,0,0,0,.64-.96l.48-.96v-.48a.141.141,0,0,1,.16-.16,19,19,0,0,1,1.36-2.32A7.035,7.035,0,0,0,508-21.12a.461.461,0,0,1,.32-.16l2.08-3.36,1.12-1.92a2.135,2.135,0,0,1,.4-.56,3.591,3.591,0,0,0,.56-.88,3,3,0,0,0,.96-1.2,14.123,14.123,0,0,1,.8-1.52l2.4-4.16.64-1.44q.8-1.12,1.44-2.16a12.058,12.058,0,0,1,1.76-2.16v-.32a4.725,4.725,0,0,1,2.08-2.08q.32-.48.24-.64a.568.568,0,0,1,.08-.48l1.28-1.12a2.967,2.967,0,0,1,.4-1.6,9.063,9.063,0,0,0,.72-1.44q.48-.8.8-1.36a4.922,4.922,0,0,1,.8-1.04,5.787,5.787,0,0,0,1.12-2,21.691,21.691,0,0,1,.8-2.16q.48-.64.88-1.28a7.519,7.519,0,0,0,.72-1.6,1.685,1.685,0,0,0,.64-1.44l2.08-2.72q.16-.32,1.12-1.84t2.32-3.76q1.36-2.24,2.96-4.72t2.96-4.64q1.36-2.16,2.24-3.76a17.4,17.4,0,0,0,1.04-2.08,9.7,9.7,0,0,1,.96-2,12.4,12.4,0,0,0,.96-1.84,1.435,1.435,0,0,1,.24-.72q.24-.4.4-.72a5.219,5.219,0,0,1,.56-1.52,13.285,13.285,0,0,0,.72-1.52l1.12-2.24a17.407,17.407,0,0,0,.96-3.36,1.069,1.069,0,0,0-.16-1.44,3.792,3.792,0,0,1-.4-2.4,4.562,4.562,0,0,1,.88-1.76,20.619,20.619,0,0,1,1.52-1.68q.88-.88,1.68-1.84a2.506,2.506,0,0,0,.48-.64.513.513,0,0,1,.48-.32,6.205,6.205,0,0,0,.8-.32,1.42,1.42,0,0,1,.64-.16,3.366,3.366,0,0,1,.8.08,2.63,2.63,0,0,0,.64.08.461.461,0,0,0,.16.32.2.2,0,0,1,0,.32l1.76.48a1.669,1.669,0,0,0,1.28,1.6l.96,2.08a.665.665,0,0,1,.24.64.665.665,0,0,0,.24.64,1.158,1.158,0,0,1,.48,1.04,2.228,2.228,0,0,0,.48,1.36v2.24q-.16,1.28-.32,2.48a6.574,6.574,0,0,0,.16,2.48q.32.16.16.4a.778.778,0,0,0-.16.4q-.32.8-.56,1.52a4.776,4.776,0,0,0-.24,1.52.878.878,0,0,0-.32.56,2.036,2.036,0,0,1-.48.88l-.96,3.36a9.016,9.016,0,0,0-.72,1.44q-.24.64-.56,1.44l-5.6,9.76q-4.96,8.48-8.72,16.16a106.359,106.359,0,0,1-8.88,14.88.141.141,0,0,0-.16.16v.32a7.381,7.381,0,0,1-.96,2.08q-.64.96-1.28,2.08a1.31,1.31,0,0,0-.48.8,7.556,7.556,0,0,1-1.92,2.88l-.96,1.12q-.32.8-.72,1.6a6.268,6.268,0,0,1-1.2,1.6q-.32.64-.64,1.44l-.64,1.6a2.132,2.132,0,0,0-.48.72,2.131,2.131,0,0,1-.48.72q-.48.8-.32.96-.64.96-1.2,1.92t-1.04,1.92a13.915,13.915,0,0,1-1.04,1.76,13.915,13.915,0,0,0-1.04,1.76.912.912,0,0,0-.32.96,2.131,2.131,0,0,0-.48.72,4.983,4.983,0,0,1-.64,1.04l-.64,1.76a2.191,2.191,0,0,0-.8,1.28,4.551,4.551,0,0,1-.8.96,9.172,9.172,0,0,1-.8,2.16q-.48.88-1.12,1.84a9.4,9.4,0,0,0-.88,1.44q-.4.8-.72,1.6a6.442,6.442,0,0,1-1.12,1.92h.32l.64-.48a25.481,25.481,0,0,1,2.4-2.4,1.853,1.853,0,0,0,.4-.24l.24-.24q.32-.32.32-.48t.32-.48a7.117,7.117,0,0,0,2-1.28,15.6,15.6,0,0,1,1.84-1.44l.88-.88a3.964,3.964,0,0,1,1.04-.72l2.72-2.88,2.88-3.04,1.12-1.12,3.04-2.72.64-.64a1.458,1.458,0,0,0,.8-.8,16.257,16.257,0,0,1,1.6-1.68q.8-.72,1.76-1.68a1.316,1.316,0,0,0,.4-.08,1.773,1.773,0,0,1,.56-.08l.32-1.12.8-.48a2.618,2.618,0,0,1,.64.16,5.238,5.238,0,0,1,.32-1.28.633.633,0,0,0,.4-.08.326.326,0,0,1,.24-.08,2.456,2.456,0,0,0,.32-.96h.64q.32-.16.24-.4a1.316,1.316,0,0,1-.08-.4,12.131,12.131,0,0,0,2-2.16,7.533,7.533,0,0,1,1.84-1.84,4.49,4.49,0,0,1,1.12-1.76q.8-.8,1.6-1.76a2.008,2.008,0,0,0,.48-.8l1.44-1.12.96-1.28a4.4,4.4,0,0,1,1.28-1.12,9.965,9.965,0,0,1,1.04-1.44,5.653,5.653,0,0,1,1.36-1.12l.32-.8,2.56-2.56,1.92-2.24L564-47.84l2.4-2.72,1.12-.8a1.781,1.781,0,0,0,.8.16q-.16.32,0,.32a.141.141,0,0,1,.16.16h.32l.96,1.28a1.416,1.416,0,0,0-.4.64,3.122,3.122,0,0,1-.24.64l.8-.32Q570.72-47.84,570.24-45.6ZM504.64-8.16a.2.2,0,0,0-.32,0,.461.461,0,0,0-.16.32v.16q-.32.32-.32.48H504q.16,0,.08-.16a.261.261,0,0,1,.08-.32Zm20.48-12.96-.16-.16v.32q-.16,0-.16.64v-.32a.461.461,0,0,1,.16-.32Zm1.92-3.36a1.425,1.425,0,0,0,.8-1.76,3.46,3.46,0,0,0-.8,1.76,2.58,2.58,0,0,0-.96,2.08.141.141,0,0,0-.16.16h.16v-.16A5.375,5.375,0,0,0,527.04-24.48Zm7.2-12.32q-.8,1.28-1.44,2.32t-1.44,2.32l-.16.48a14.555,14.555,0,0,0-1.12,1.6,14.564,14.564,0,0,1-1.12,1.6v.64l1.6-2.56a2.137,2.137,0,0,1,.4-.56.978.978,0,0,0,.24-.72,27.532,27.532,0,0,0,1.84-2.56A7.463,7.463,0,0,0,534.24-36.8Zm-1.92-6.08a1.29,1.29,0,0,0-.16.56.878.878,0,0,1-.32.56A1.026,1.026,0,0,0,532.32-42.88Zm-11.68,6.4h.16v-.32Zm-9.12,15.36a1.289,1.289,0,0,0-.16.56,1.289,1.289,0,0,1-.16.56,2.34,2.34,0,0,0,.48-1.44q.64-.32.32-.48,0,.16-.32.48Zm-.8,5.44q-.16.32-.08.4t-.08.24q.32,0,.32-.16a1.9,1.9,0,0,0,.32-1.44A1.383,1.383,0,0,1,510.72-15.68Zm-.64,1.76a1.085,1.085,0,0,0,.32-.8Zm-3.84,2.08a.461.461,0,0,1-.16.32l.32-.32Zm-.16.96q-.8,0-.16.64Q505.76-10.72,506.08-10.88Zm3.84,7.84a1.861,1.861,0,0,1,.32-.48,1.861,1.861,0,0,0,.32-.48q.32-.8.8-1.76t.8-1.76q.8-1.28,1.44-2.48a20.956,20.956,0,0,1,1.44-2.32q.8-1.6,1.76-3.2t1.92-3.36L520-21.12a16.513,16.513,0,0,0,1.12-2.4,2.278,2.278,0,0,0,.4-.48l.24-.48a32.365,32.365,0,0,0,1.68-2.8q.72-1.36,1.52-2.64,1.92-2.56,3.92-5.44a18.724,18.724,0,0,0,2.8-5.92q-.64,1.12-1.12,2.08t-1.28,2.24l-2,3.2q-1.2,1.92-3.28,4.96a6.268,6.268,0,0,0-1.2,1.6q-.4.8-.88,1.6l-1.44,2.08a8.842,8.842,0,0,1-.8,1.76,11.191,11.191,0,0,0-.8,1.6,7.583,7.583,0,0,0-1.2,1.92,7.581,7.581,0,0,1-1.2,1.92q-.8,1.44-1.52,2.96t-1.68,3.12l-1.6,3.04a4.362,4.362,0,0,0-1.12,1.92,2.029,2.029,0,0,0-.48.96,2.029,2.029,0,0,1-.48.96L508.16,0,508,.16a3.872,3.872,0,0,0-.96,2.08q-.48,1.12-.8,2.08l-.64,1.92a1.088,1.088,0,0,0,.16,1.44.461.461,0,0,0,.16-.32q.32-.96.56-1.92a13.67,13.67,0,0,1,.56-1.76l1.92-4.32ZM514.24,0q.32-.8.72-1.6l.72-1.44a4.409,4.409,0,0,0,.8-1.76,13.164,13.164,0,0,0,1.04-1.84,18.84,18.84,0,0,0,.72-1.84,2.132,2.132,0,0,0,.48-.72q.16-.4.32-.72a21.425,21.425,0,0,0,2.16-3.68,22.385,22.385,0,0,1,2-3.52,5.309,5.309,0,0,1,.56-1.12l.72-.96q-.16-.32-.08-.32t.08-.32q-.64.32-.48.32h-.16l-1.28,2.72a7.183,7.183,0,0,1-1.12,1.76l-1.92,3.52-2.88,5.44-2.4,4.32a19.512,19.512,0,0,1-.8,2q-.48,1.04-.96,2-.32.8-.64,1.52t-.64,1.68a1.228,1.228,0,0,0,.16.48q0-.16.32-.48a.461.461,0,0,0,.16-.32l1.44-3.52Zm8.96,9.76a.922.922,0,0,0-.32.64Zm.16-.16q.32,0,.64-.48a.141.141,0,0,1-.16-.16Q523.36,9.44,523.36,9.6Zm6.24-6.56a8.726,8.726,0,0,1-.72.64.985.985,0,0,0-.4.8ZM531.84.8A.461.461,0,0,1,532,.48l-.32.32-.16.32A.283.283,0,0,1,531.84.8Zm1.28-1.28a2.135,2.135,0,0,0-.56.4l-.4.4q.8,0,.8-.64Zm1.28-1.28a8.413,8.413,0,0,0,1.28-1.6q.48-.8,1.12-1.76l-.64.64a11.107,11.107,0,0,1-1.44,1.92.729.729,0,0,0-.4.4,1.576,1.576,0,0,1-.4.56,1.208,1.208,0,0,0-.48.4,2.618,2.618,0,0,1-.32.4q.8-.32.8-.8a.326.326,0,0,0,.24-.08A.326.326,0,0,1,534.4-1.76Zm3.36-4a3.681,3.681,0,0,0,.88-1.28,3.109,3.109,0,0,1,.72-1.12l-.32.32L537.12-5.6a.326.326,0,0,0,.24-.08A.633.633,0,0,1,537.76-5.76Zm3.52-15.2a.461.461,0,0,0-.16-.32h-.16l.16.32Zm2.08-1.76-.16-.16a.141.141,0,0,1-.16.16h.32Zm.8-.64a.283.283,0,0,1,.32-.32q-.32-.16-.32-.32l-.32.8Zm10.56-3.36a.962.962,0,0,0,.64-.64.866.866,0,0,0-.4.32,1.255,1.255,0,0,1-.24.32,1.208,1.208,0,0,0-.48.4,2.618,2.618,0,0,1-.32.4L552.48-24l-.96,1.6.96-.64q-.16,0-.16-.48a.729.729,0,0,0,.4-.4,1,1,0,0,1,.24-.4l1.2-1.2A2.3,2.3,0,0,0,554.72-26.72Zm1.44-1.6q.48-.32.32-.64A.922.922,0,0,1,556.16-28.32Zm2.24-2.56a.461.461,0,0,1,.32-.16q.16,0,.16-.32Zm1.28-1.6a.461.461,0,0,0-.16.32V-32Zm.96-.8q.16,0,.48-.48Q560.64-33.44,560.64-33.28Z" transform="translate(-4.32 129.067)" fill="#f5f5f5"/>
</svg>
