<svg xmlns="http://www.w3.org/2000/svg" width="1012.05" height="833.568" viewBox="0 0 1012.05 833.568">
  <g id="グループ_291" data-name="グループ 291" transform="translate(-827.962 -151.432)">
    <g id="グループ_289" data-name="グループ 289" transform="translate(827.962 151.432)">
      <path id="パス_999" data-name="パス 999" d="M1055.554,396.669c-42.9-168.676-191.114-290.436-365.09-295.32-91.976-2.582-188.76,27.922-259.226,134.668C305.272,426.837,438.979,558.7,532.2,621.358A583.276,583.276,0,0,1,652.758,729.718c62.965,74.718,184.095,167.565,328.355,22.088C1085.673,646.363,1084.127,509.024,1055.554,396.669Z" transform="translate(-379.841 -101.201)" fill="#111" opacity="0.1"/>
      <path id="パス_1000" data-name="パス 1000" d="M511.576,837.89q45.189-11.77,86.9-20.017l-10.684-35.719c3.717-2.064,19.807,18.606,19.807,18.606L594.032,697.453c18.577,4.143,27.184,109.513,27.184,109.513L642.3,771.857l-10.39,39.758c85.082-14.858,158.495-19.466,220.2-18.362l-9.144-30.571c3.717-2.064,19.807,18.606,19.807,18.606L849.209,677.981c18.577,4.143,27.184,109.513,27.184,109.513l21.079-35.109-11,42.11c51.717,2.839,93.855,9.636,126.361,17.051-9.115-47.514-41.016-93.2-41.016-93.2,24.543,12.755,37.3,33.517,43.9,52.76,1-58.4-1.591-166.78-26.419-287.238,0,0,49.434,185.968,41.927,309.922l-.956,22.019c43.1,11.242,64.72,22.438,64.72,22.438Z" transform="translate(-375.825 -89.537)" fill="#3f3d56"/>
      <g id="グループ_290" data-name="グループ 290" transform="translate(78.136 491.506)">
        <path id="パス_1001" data-name="パス 1001" d="M693.03,806.472c-.21-.343-5.153-8.6-6.867-25.736-1.572-15.725-.561-42.229,13.185-79.2,26.041-70.041-6-126.555-6.329-127.118l1.581-.917c.083.143,8.351,14.551,13.236,37.5a163.58,163.58,0,0,1-6.775,91.177c-26,69.922-6.669,103.022-6.471,103.349Z" transform="translate(-670.971 -546.552)" fill="#3f3d56"/>
        <circle id="楕円形_227" data-name="楕円形 227" cx="11.876" cy="11.876" r="11.876" transform="translate(0 0)" fill="#6c63ff" opacity="0.3"/>
        <circle id="楕円形_228" data-name="楕円形 228" cx="11.876" cy="11.876" r="11.876" transform="translate(37.455 43.849)" fill="#3f3d56"/>
        <circle id="楕円形_229" data-name="楕円形 229" cx="11.876" cy="11.876" r="11.876" transform="translate(11.876 73.083)" fill="#6c63ff" opacity="0.3"/>
        <circle id="楕円形_230" data-name="楕円形 230" cx="11.876" cy="11.876" r="11.876" transform="translate(42.936 97.748)" fill="#6c63ff" opacity="0.3"/>
        <circle id="楕円形_231" data-name="楕円形 231" cx="11.876" cy="11.876" r="11.876" transform="translate(2.74 136.116)" fill="#3f3d56"/>
      </g>
      <path id="パス_1002" data-name="パス 1002" d="M699.829,801.518s-11.876-29.233,23.752-51.158Z" transform="translate(-370.145 -81.414)" fill="#3f3d56"/>
      <path id="パス_1003" data-name="パス 1003" d="M687,800.4s-5.4-31.087-47.237-30.821Z" transform="translate(-371.918 -80.828)" fill="#3f3d56"/>
    </g>
    <g id="undraw_bookshelves_xekd" transform="translate(809.013 206.448)">
      <rect id="長方形_230" data-name="長方形 230" width="390.592" height="689.892" transform="translate(582.891)" fill="#3f3d56"/>
      <ellipse id="楕円形_221" data-name="楕円形 221" cx="482.462" cy="11.206" rx="482.462" ry="11.206" transform="translate(66.074 682.062)" fill="#3f3d56"/>
      <ellipse id="楕円形_222" data-name="楕円形 222" cx="334.012" cy="7.758" rx="334.012" ry="7.758" transform="translate(214.524 722.577)" fill="#3f3d56"/>
      <ellipse id="楕円形_223" data-name="楕円形 223" cx="272.469" cy="6.329" rx="272.469" ry="6.329" transform="translate(275.915 757.625)" fill="#3f3d56"/>
      <rect id="長方形_231" data-name="長方形 231" width="390.592" height="2.311" transform="translate(582.891 132.316)" fill="#d0cde1"/>
      <rect id="長方形_232" data-name="長方形 232" width="390.592" height="2.311" transform="translate(582.891 273.299)" fill="#d0cde1"/>
      <rect id="長方形_233" data-name="長方形 233" width="390.592" height="2.311" transform="translate(582.891 414.282)" fill="#d0cde1"/>
      <rect id="長方形_234" data-name="長方形 234" width="390.592" height="2.311" transform="translate(582.891 555.265)" fill="#d0cde1"/>
      <path id="パス_964" data-name="パス 964" d="M384.309,382.129h0l6.887-21.414,1.324,1.174a36.284,36.284,0,0,0,28.818,9.267l1.76-.182-6.886,21.414h0l-4.727,14.7h0l-15.9,49.456h0l-4.727,14.7h0l-5.221,16.234-1.286-.915a49.506,49.506,0,0,0-29.038-9.337l-1.579-.007,5.22-16.232h0l4.727-14.7h0l15.9-49.456h0Zm35.517-8.528a38.174,38.174,0,0,1-27.5-8.844l-5.814,18.079,27.5,8.844Zm-6.522,20.28-27.5-8.844-3.312,10.3,27.5,8.845Zm-56.413,81.057a51.579,51.579,0,0,1,27.5,8.844l4.261-13.25-27.5-8.843Zm4.968-15.449,27.5,8.844,3.312-10.3-27.5-8.844Zm4.019-12.5,27.5,8.844,15.9-49.456-27.5-8.845Z" transform="translate(410.024 -74.617)" fill="#d0cde1"/>
      <path id="パス_965" data-name="パス 965" d="M266.309,260.129h0l6.886-21.414,1.324,1.174a36.283,36.283,0,0,0,28.818,9.267l1.76-.182-6.886,21.414h0l-4.727,14.7h0l-15.9,49.456h0l-4.727,14.7h0l-5.22,16.233-1.286-.915a49.506,49.506,0,0,0-29.038-9.338l-1.579-.006,5.22-16.233h0l4.727-14.7h0l15.9-49.457h0Zm35.517-8.528a38.162,38.162,0,0,1-27.5-8.844l-5.814,18.079,27.5,8.844Zm-6.522,20.28-27.5-8.844-3.312,10.3,27.5,8.845Zm-56.413,81.057a51.586,51.586,0,0,1,27.5,8.844l4.26-13.249-27.5-8.844Zm4.968-15.449,27.5,8.844,3.312-10.3-27.5-8.844Zm4.019-12.5,27.5,8.844,15.9-49.456-27.5-8.845Z" transform="translate(664.385 -93.6)" fill="#d0cde1"/>
      <path id="パス_966" data-name="パス 966" d="M967.325,234.884a15.839,15.839,0,1,0-15.839-15.839A15.839,15.839,0,0,0,967.325,234.884Zm0-29.039a13.2,13.2,0,1,1-13.2,13.2,13.2,13.2,0,0,1,13.2-13.2Z" transform="translate(-840.804 -99.125)" fill="#3f3d56"/>
      <path id="パス_967" data-name="パス 967" d="M967.4,631.691h26.057V605.633H967.4Zm24.053-2H969.4V607.638h22.048Z" transform="translate(-942.396 -25.628)" fill="#3f3d56"/>
      <path id="パス_968" data-name="パス 968" d="M630.366,279.672l17.773-19.055-19.055-17.773L611.311,261.9Zm14.94-18.957-15.039,16.124L614.144,261.8l15.039-16.124Z" transform="translate(-112.674 -92.957)" fill="#3f3d56"/>
      <path id="パス_969" data-name="パス 969" d="M709.949,364.153,746.6,408.629l-54.25,64.025-36.167-42.52Z" transform="translate(-473.896 56.662)" fill="#ebd664"/>
      <path id="パス_970" data-name="パス 970" d="M709.949,364.153,746.6,408.629l-54.25,64.025-36.167-42.52Z" transform="translate(-473.896 56.662)" opacity="0.1"/>
      <path id="パス_971" data-name="パス 971" d="M890.786,521.377h0a18.419,18.419,0,0,0-2.989-3.991L854.13,483.256s-11.73-1.955-14.173,3.91l43.009,35.189Z" transform="translate(-619.543 -55.598)" fill="#f2f2f2"/>
      <path id="パス_972" data-name="パス 972" d="M949.176,520.8l-49.852,76.243s-4.887,3.421-9.775,1.466l-51.073-34.456,54.25-82.108L941.6,520.067Z" transform="translate(-676.223 -55.753)" fill="#ebd664"/>
      <rect id="長方形_235" data-name="長方形 235" width="40.412" height="14.984" transform="translate(234.996 491.563) rotate(-146.051)" fill="#3f3d56"/>
      <path id="パス_973" data-name="パス 973" d="M856.632,461.639s-4.622,34.668,11.556,33.512,8.089-31.2,8.089-31.2Z" transform="translate(-625.62 -58.913)" fill="#fec8ae"/>
      <path id="パス_974" data-name="パス 974" d="M794.813,354.573l19.645-2.311V349.95l18.49-2.311s40.446,76.27,38.135,124.8S837.57,733.609,837.57,733.609s-48.535-4.622-55.469-18.49l8.089-47.38,4.622-56.624s-31.2,158.317-45.068,158.317-54.313-8.089-50.846-13.867,45.068-183.74,45.068-183.74l4.622-86.67,10.4-127.116Z" transform="translate(-436.685 -76.651)" fill="#011529"/>
      <ellipse id="楕円形_224" data-name="楕円形 224" cx="32.357" cy="32.357" rx="32.357" ry="32.357" transform="translate(309.592 97.648)" fill="#fec8ae"/>
      <path id="パス_975" data-name="パス 975" d="M832.928,247.284s-12.712,28.89-3.467,41.6-49.691-20.8-49.691-20.8,28.89-27.734,30.046-40.446Z" transform="translate(-492.135 -95.323)" fill="#ffb8b8"/>
      <path id="パス_976" data-name="パス 976" d="M733.7,258.639s30.046,18.49,54.313,11.556l60.091,98.226-99.381,18.49-21.956-124.8Z" transform="translate(-446.068 -90.5)" fill="#7e7e7e"/>
      <path id="パス_977" data-name="パス 977" d="M800,256.1s-4.622-5.778-10.4-2.311-42.757,4.622-45.068,19.645S800,517.265,800,517.265l9.245-2.311s-10.4-3.467,30.046-13.867,46.224-45.068,36.979-86.67-12.712-67.025-12.712-67.025Z" transform="translate(-498.499 -91.427)" fill="#071822"/>
      <path id="パス_978" data-name="パス 978" d="M679.8,262.546s40.787,17.441,41.943,23.219,45.068,109.782,45.068,109.782l9.245,8.089-4.622,3.467,33.512,73.958s-1.156,9.245-18.49,9.245h-10.4s-17.334-87.825-28.89-104S660.97,277.462,679.8,262.546Z" transform="translate(-345.126 -89.891)" fill="#071822"/>
      <path id="パス_979" data-name="パス 979" d="M862.594,265.674s-15.023-4.622-18.49,25.423-2.311,49.691-2.311,49.691L826.771,497.949l32.357,3.467,28.89-176.807Z" transform="translate(-601.537 -89.445)" fill="#071822"/>
      <path id="パス_980" data-name="パス 980" d="M756.343,676.114s0,23.112,10.4,26.579,41.6,31.2,4.622,30.046-33.512-18.49-33.512-18.49v-4.622l-9.245,4.622-18.49-4.622s-5.778-40.446,0-43.913S756.343,676.114,756.343,676.114Z" transform="translate(-364.704 -27.246)" fill="#2f2e41"/>
      <path id="パス_981" data-name="パス 981" d="M827.684,708.72s-1.156,34.668,12.712,50.846,28.89,38.135,10.4,40.446-52-11.556-50.846-19.645,0-10.4,0-10.4h-5.778l-9.245-6.934s-5.778-56.624,4.622-61.247S827.684,708.72,827.684,708.72Z" transform="translate(-522.714 -21.716)" fill="#2f2e41"/>
      <path id="パス_982" data-name="パス 982" d="M760.482,332.39l-8.089-11.556S737.37,306.967,726.97,313.9s19.468,27.045,19.468,27.045h8.346l3.388,2.314Z" transform="translate(-356.131 -82.203)" fill="#fec8ae"/>
      <ellipse id="楕円形_225" data-name="楕円形 225" cx="4.622" cy="4.622" rx="4.622" ry="4.622" transform="translate(355.238 268.099)" fill="#2f2e41"/>
      <ellipse id="楕円形_226" data-name="楕円形 226" cx="4.622" cy="4.622" rx="4.622" ry="4.622" transform="translate(356.394 285.433)" fill="#2f2e41"/>
      <path id="パス_983" data-name="パス 983" d="M737.389,346.218l-13.867-26.579s-.169,24.547-8.751,24.985l18,25.861Z" transform="translate(-321.482 -81.008)" fill="#071822"/>
      <path id="パス_984" data-name="パス 984" d="M870.722,224.1s18.689-52.948-42.233-47.351c0,0-39.166-16.236-63.488,31.892L739.982,259.2l7.369-2.174,1.632,7.385,10.111,5,6.526-8.1-.155,11.5,85.7,27.536s-34.242-31.619-25.936-73.325l5.776,9.5Z" transform="translate(-486.651 -103.651)" fill="#011e3b"/>
      <path id="パス_985" data-name="パス 985" d="M445.271,569.891V582.66a12.62,12.62,0,0,0,12.441,12.769h36.365a12.62,12.62,0,0,0,12.441-12.769V569.891a12.62,12.62,0,0,0-12.441-12.769H482.593v-.982H469.2v.982H457.712a12.62,12.62,0,0,0-12.441,12.769Z" transform="translate(220.824 -44.209)" fill="#ebebeb"/>
      <path id="パス_986" data-name="パス 986" d="M460.293,562.919h13.867V543.274h6.934V533.128a4.816,4.816,0,0,1-1.629.266c-3.721,0-9.511-3.109-14.491-7.13a31.879,31.879,0,0,1-9.73-14.78l-.428-1.56,1.606.092a31.791,31.791,0,0,1,16.525,6.356,40.346,40.346,0,0,1,8.147,8.563v-14.6c-3.039-2.045-4.622-9.43-4.622-16.756a31.784,31.784,0,0,1,5.42-16.849l.936-1.306.936,1.306a31.784,31.784,0,0,1,5.42,16.849c0,8.2-1.988,16.49-5.778,17.253v32.438h6.934v19.645h13.867a15.037,15.037,0,0,1,15.023,15.023v15.023a15.037,15.037,0,0,1-15.023,15.023H460.293a15.037,15.037,0,0,1-15.023-15.023V577.942a15.037,15.037,0,0,1,15.023-15.023ZM471.5,518.163a29.413,29.413,0,0,0-13.451-5.628,29.279,29.279,0,0,0,8.367,11.937c7.038,5.662,13.232,7.523,14.237,6.263S478.529,523.837,471.5,518.163Zm15.369-24.58a29.355,29.355,0,0,0-4.045-14.006,29.268,29.268,0,0,0-4.044,14.006c0,9.037,2.438,15.023,4.045,15.023s4.045-5.986,4.045-15.023Zm-39.29,99.381a12.719,12.719,0,0,0,12.712,12.712h43.913a12.719,12.719,0,0,0,12.712-12.712V577.942a12.719,12.719,0,0,0-12.712-12.712H488.028V545.585H476.472v19.645H460.293a12.719,12.719,0,0,0-12.712,12.712Z" transform="translate(208.112 -56.767)" fill="#d0cde1"/>
      <path id="パス_987" data-name="パス 987" d="M323.582,384.139V388.1h28.89v-3.959h2.311V462.72h-2.311v-2.408h-28.89v2.408h-2.311V384.139Zm0,62.713h28.89V401.558h-28.89Z" transform="translate(515.852 -70.972)" fill="#ebd664"/>
      <path id="パス_988" data-name="パス 988" d="M284.582,391.139v3.552h28.89v-3.552h2.311v70.492h-2.311v-2.16h-28.89v2.16h-2.311V391.139Zm0,56.258h28.89V406.765h-28.89Z" transform="translate(599.921 -69.883)" fill="#f4f4f4"/>
      <path id="パス_989" data-name="パス 989" d="M245.582,384.139v3.726h28.89v-3.726h2.311V458.1h-2.311v-2.266h-28.89V458.1h-2.311V384.139Zm0,59.024h28.89v-42.63h-28.89Z" transform="translate(683.989 -70.972)" fill="#a558ff"/>
      <path id="パス_990" data-name="パス 990" d="M529.582,264.139V268.1h28.89v-3.959h2.311V342.72h-2.311v-2.408h-28.89v2.408h-2.311V264.139Zm0,62.713h28.89V281.558h-28.89Z" transform="translate(71.799 -89.644)" fill="#a558ff"/>
      <path id="パス_991" data-name="パス 991" d="M490.582,271.139v3.552h28.89v-3.552h2.311v70.492h-2.311v-2.16h-28.89v2.16h-2.311V271.139Zm0,56.258h28.89V286.765h-28.89Z" transform="translate(155.867 -88.555)" fill="#ebd664"/>
      <path id="パス_992" data-name="パス 992" d="M451.582,264.139v3.726h28.89v-3.726h2.311V338.1h-2.311v-2.266h-28.89V338.1h-2.311V264.139Zm0,59.024h28.89v-42.63h-28.89Z" transform="translate(239.936 -89.644)" fill="#6c63ff"/>
      <path id="パス_993" data-name="パス 993" d="M322.888,365.314a36.265,36.265,0,0,0,30.277,0l1.618-.7V486.987l-1.5-.485a49.49,49.49,0,0,0-30.508,0l-1.5.485V364.609Zm29.583,89.178V402.536h-28.89v51.956Zm-28.89,2.311v10.816h28.89V456.8Zm28.89-56.578V389.408h-28.89v10.816Zm-28.89,83.619a51.75,51.75,0,0,1,28.89,0V469.93h-28.89Zm0-96.747h28.89V368.111a38.229,38.229,0,0,1-28.89,0Z" transform="translate(515.852 -74.011)" fill="#d0cde1"/>
      <path id="パス_994" data-name="パス 994" d="M283.776,486.506l-1.5.477V364.608l1.621.712a36.275,36.275,0,0,0,30.271,0l1.621-.712V486.983l-1.5-.477A49.486,49.486,0,0,0,283.776,486.506Zm.806-18.886h28.89V456.8h-28.89Zm0-67.39h28.89V389.413h-28.89Zm28.89-32.119a38.2,38.2,0,0,1-28.89,0V387.1h28.89Zm0,34.43h-28.89v51.951h28.89Zm0,67.39h-28.89v13.917a51.579,51.579,0,0,1,28.89,0Z" transform="translate(599.921 -74.011)" fill="#d0cde1"/>
      <path id="パス_995" data-name="パス 995" d="M244.776,486.506l-1.5.477V364.608l1.621.712a36.275,36.275,0,0,0,30.271,0l1.621-.712V486.983l-1.5-.477A49.486,49.486,0,0,0,244.776,486.506Zm.806-18.886h28.89V456.8h-28.89Zm0-67.39h28.89V389.413h-28.89Zm28.89-32.119a38.2,38.2,0,0,1-28.89,0V387.1h28.89Zm0,34.43h-28.89v51.951h28.89Zm0,67.39h-28.89v13.917a51.579,51.579,0,0,1,28.89,0Z" transform="translate(683.989 -74.011)" fill="#d0cde1"/>
      <path id="パス_996" data-name="パス 996" d="M450.776,364.505l-1.5.477V242.608l1.621.712a36.276,36.276,0,0,0,30.271,0l1.621-.711V364.983l-1.5-.477A49.5,49.5,0,0,0,450.776,364.505Zm.806-18.886h28.89V334.8h-28.89Zm0-67.39h28.89V267.413h-28.89Zm28.89-32.119a38.2,38.2,0,0,1-28.89,0V265.1h28.89Zm0,34.43h-28.89v51.951h28.89Zm0,67.39h-28.89v13.917a51.591,51.591,0,0,1,28.89,0Z" transform="translate(239.936 -92.994)" fill="#d0cde1"/>
      <path id="パス_997" data-name="パス 997" d="M489.776,364.505l-1.5.477V242.608l1.621.712a36.276,36.276,0,0,0,30.271,0l1.62-.711V364.983l-1.5-.477A49.5,49.5,0,0,0,489.776,364.505Zm.806-18.886h28.89V334.8h-28.89Zm0-67.39h28.89V267.413h-28.89Zm28.89-32.119a38.2,38.2,0,0,1-28.89,0V265.1h28.89Zm0,34.43h-28.89v51.951h28.89Zm0,67.39h-28.89v13.917a51.591,51.591,0,0,1,28.89,0Z" transform="translate(155.867 -92.994)" fill="#d0cde1"/>
      <path id="パス_998" data-name="パス 998" d="M528.776,364.505l-1.505.477V242.608l1.62.712a36.276,36.276,0,0,0,30.271,0l1.62-.711V364.983l-1.5-.477A49.5,49.5,0,0,0,528.776,364.505Zm.806-18.886h28.89V334.8h-28.89Zm0-67.39h28.89V267.413h-28.89Zm28.89-32.119a38.2,38.2,0,0,1-28.89,0V265.1h28.89Zm0,34.43h-28.89v51.951h28.89Zm0,81.307V347.931h-28.89v13.917a51.59,51.59,0,0,1,28.89,0Z" transform="translate(71.799 -92.994)" fill="#d0cde1"/>
    </g>
  </g>
</svg>
