<svg xmlns="http://www.w3.org/2000/svg" width="1138.138" height="811.478" viewBox="0 0 1138.138 811.478">
  <g id="グループ_284" data-name="グループ 284" transform="translate(0.446 -194.16)">
    <path id="パス_389" data-name="パス 389" d="M763.159,653.708c-72.964,2.33-142.468,23.958-208.826,47.627s-132.085,49.894-203.3,62.432c-45.806,8.065-98.2,9.2-135.095-13.346-35.524-21.743-47-59.171-53.168-93.938-4.645-26.153-7.373-53.673,5.355-78.159,8.827-17,24.509-31.289,35.344-47.627,37.734-56.655,11.071-126.521-29.819-181.84-19.166-25.957-41.432-50.733-56.223-78.336s-21.646-59.274-8.7-87.457c12.841-27.955,43.427-48.91,76.55-63.664C252.566,89.425,331.833,80.853,409.183,76,512.4,69.51,615.942,68.629,720.323,69.984c67.385.874,125.52,59.524,193.655,61.374,63.517,1.729,137.376-53.321,199.856-44.3,34.7,5.011,70.518,12.952,95.715,32.148,31.972,24.362,39.9,65.621,18.478,96.164-35.953,51.24-89.03,52.87-114.193,107.869-13.822,30.264,10.126,77.94,30.216,106.019,43.111,60.217,59.366,110.181,63.176,179.012,2.615,47.285-32.13,94.622-85.839,117C1065.1,748.8,987.014,745.814,945.5,707,902.73,667,827.579,651.658,763.159,653.708Z" transform="translate(-102.332 124.721)" fill="#111" opacity="0.1"/>
    <g id="undraw_selecting_1lx3_1_" data-name="undraw_selecting_1lx3 (1)" transform="translate(207.994 195.656)">
      <path id="パス_602" data-name="パス 602" d="M662.164,843.416c0,16.54-102.33,29.94-228.776,30.026h-1.15c-61.722,0-117.769-3.177-159.069-8.331-1.768-.235-3.511-.457-5.217-.693-7.021-.928-13.585-1.928-19.63-2.967-28.889-5.031-46.01-11.273-46.01-18.035,0-5.476,11.2-10.594,30.768-15.019,10.334-2.336,22.993-4.462,37.579-6.341q4.024-.538,8.258-1.013c40.682-4.76,94.418-7.652,153.321-7.652,11.447,0,22.708.111,33.71.322C576.943,815.837,662.164,828.323,662.164,843.416Z" transform="translate(-202.313 -63.46)" fill="#3f3d56"/>
      <rect id="長方形_168" data-name="長方形 168" width="340.55" height="174.532" transform="translate(529.188 449.942)" fill="#f2f2f2"/>
      <rect id="長方形_169" data-name="長方形 169" width="340.55" height="174.532" transform="translate(105.675 1.064)" fill="#f2f2f2"/>
      <path id="パス_603" data-name="パス 603" d="M641.7,261.66H299.025V85H641.7Zm-340.55-2.128H639.574V87.128H301.153Z" transform="translate(-194.413 -85)"/>
      <rect id="長方形_170" data-name="長方形 170" width="340.55" height="174.532" transform="translate(529.188 1.064)" fill="#f2f2f2"/>
      <rect id="長方形_171" data-name="長方形 171" width="340.55" height="174.532" transform="translate(105.675 225.503)" fill="#f2f2f2"/>
      <rect id="長方形_172" data-name="長方形 172" width="340.55" height="174.532" transform="translate(529.188 225.503)" fill="#f2f2f2"/>
      <rect id="長方形_173" data-name="長方形 173" width="340.55" height="174.532" transform="translate(105.675 449.942)" fill="#f2f2f2"/>
      <path id="パス_606" data-name="パス 606" d="M600.671,669.66q-20.757-3.517-39.925-6.04l5.052-9.795c-1.7-.591-9.187,5.018-9.187,5.018l6.629-28.431c-8.567,1.033-12.923,30.062-12.923,30.062l-9.572-9.815,4.634,11.034a883.607,883.607,0,0,0-101.3-6.374l4.323-8.383c-1.7-.592-9.187,5.017-9.187,5.017l6.63-28.431c-8.567,1.034-12.923,30.063-12.923,30.063l-9.571-9.815,4.908,11.687a569.064,569.064,0,0,0-58.231,3.956c4.373-13.059,19.229-25.479,19.229-25.479-11.346,3.374-17.3,9.028-20.406,14.3a228.99,228.99,0,0,1,13.235-79.117s-23.45,51.031-20.458,85.285l.358,6.082c-19.881,2.847-27.7,9.536-27.7,9.536Z" transform="translate(-160.578 -45.557)" fill="#3f3d56"/>
      <circle id="楕円形_114" data-name="楕円形 114" cx="37.638" cy="37.638" r="37.638" transform="translate(208.124 238.794)" fill="#ff6584"/>
      <path id="パス_607" data-name="パス 607" d="M729.33,477.706l-4.412-3.53,24.711-22.063h62.659v19.416l-40.6,27.358Z" transform="translate(-79.73 36.85)" fill="#3f3d56"/>
      <path id="パス_608" data-name="パス 608" d="M820.166,464.489V452.553h-8.319v2.922l-3.105-3.364-20.3,22.063L780.5,479.47l-12.315,89.978,18.573,18.573h43.164V475.058Z" transform="translate(-76.185 36.825)" fill="#ccc"/>
      <rect id="長方形_174" data-name="長方形 174" width="67.072" height="113.845" transform="translate(645.2 510.997)" fill="#f2f2f2"/>
      <rect id="長方形_175" data-name="長方形 175" width="12.355" height="27.799" transform="translate(671.222 597.032)" fill="#ccc"/>
      <path id="パス_609" data-name="パス 609" d="M737.146,559.707v-4.412h-5.295v4.412h5.295Z" transform="translate(-79.147 45.273)" fill="#3f3d56"/>
      <path id="パス_610" data-name="パス 610" d="M736.706,562.636h-4.854v4.412h5.295v-4.412Z" transform="translate(-79.147 45.871)" fill="#3f3d56"/>
      <rect id="長方形_176" data-name="長方形 176" width="5.295" height="4.413" transform="translate(661.529 600.568)" fill="#3f3d56"/>
      <rect id="長方形_177" data-name="長方形 177" width="5.295" height="4.413" transform="translate(661.529 608.507)" fill="#3f3d56"/>
      <path id="パス_611" data-name="パス 611" d="M770.589,559.707v-4.412h-5.3v4.412h5.3Z" transform="translate(-76.422 45.273)" fill="#3f3d56"/>
      <path id="パス_612" data-name="パス 612" d="M770.148,562.636h-4.854v4.412h5.3v-4.412Z" transform="translate(-76.422 45.871)" fill="#3f3d56"/>
      <rect id="長方形_178" data-name="長方形 178" width="5.295" height="4.413" transform="translate(697.697 600.568)" fill="#3f3d56"/>
      <rect id="長方形_179" data-name="長方形 179" width="5.295" height="4.413" transform="translate(697.697 608.507)" fill="#3f3d56"/>
      <path id="パス_613" data-name="パス 613" d="M804.847,478.14v-4.413h-5.3v4.413h5.3Z" transform="translate(-73.614 38.623)" fill="#3f3d56"/>
      <path id="パス_614" data-name="パス 614" d="M804.406,481.069h-4.854v4.412h5.3v-4.412Z" transform="translate(-73.614 39.221)" fill="#3f3d56"/>
      <rect id="長方形_180" data-name="長方形 180" width="5.295" height="4.413" transform="translate(734.763 512.35)" fill="#3f3d56"/>
      <rect id="長方形_181" data-name="長方形 181" width="5.295" height="4.413" transform="translate(734.763 520.29)" fill="#3f3d56"/>
      <path id="パス_615" data-name="パス 615" d="M804.847,500.979v-4.413h-5.3v4.413h5.3Z" transform="translate(-73.614 40.484)" fill="#3f3d56"/>
      <path id="パス_616" data-name="パス 616" d="M804.406,503.907h-4.854v4.413h5.3v-4.413Z" transform="translate(-73.614 41.083)" fill="#3f3d56"/>
      <rect id="長方形_182" data-name="長方形 182" width="5.295" height="4.413" transform="translate(734.763 537.051)" fill="#3f3d56"/>
      <rect id="長方形_183" data-name="長方形 183" width="5.295" height="4.413" transform="translate(734.763 544.991)" fill="#3f3d56"/>
      <path id="パス_617" data-name="パス 617" d="M804.847,523.818v-4.413h-5.3v4.413h5.3Z" transform="translate(-73.614 42.347)" fill="#3f3d56"/>
      <path id="パス_618" data-name="パス 618" d="M804.406,526.746h-4.854v4.414h5.3v-4.414Z" transform="translate(-73.614 42.945)" fill="#3f3d56"/>
      <rect id="長方形_184" data-name="長方形 184" width="5.295" height="4.413" transform="translate(734.763 561.752)" fill="#3f3d56"/>
      <rect id="長方形_185" data-name="長方形 185" width="5.295" height="4.413" transform="translate(734.763 569.691)" fill="#3f3d56"/>
      <path id="パス_619" data-name="パス 619" d="M804.847,546.656v-4.412h-5.3v4.412h5.3Z" transform="translate(-73.614 44.209)" fill="#3f3d56"/>
      <path id="パス_620" data-name="パス 620" d="M804.406,549.585h-4.854V554h5.3v-4.413Z" transform="translate(-73.614 44.807)" fill="#3f3d56"/>
      <rect id="長方形_186" data-name="長方形 186" width="5.295" height="4.413" transform="translate(734.763 586.453)" fill="#3f3d56"/>
      <rect id="長方形_187" data-name="長方形 187" width="5.295" height="4.413" transform="translate(734.763 594.392)" fill="#3f3d56"/>
      <rect id="長方形_188" data-name="長方形 188" width="51.186" height="10.59" transform="translate(652.702 516.759)" fill="#3f3d56"/>
      <rect id="長方形_189" data-name="長方形 189" width="51.186" height="10.59" transform="translate(652.702 537.932)" fill="#3f3d56"/>
      <rect id="長方形_190" data-name="長方形 190" width="51.186" height="10.59" transform="translate(652.702 559.104)" fill="#3f3d56"/>
      <rect id="長方形_191" data-name="長方形 191" width="51.186" height="10.59" transform="translate(652.702 580.276)" fill="#3f3d56"/>
      <path id="パス_621" data-name="パス 621" d="M357.662,470.614h44.922V459.771h24.785v10.843h46.471v48.021H427.368v60.411H402.584V518.635H357.662L334.426,492.3Z" transform="translate(-111.691 37.454)" fill="#3f3d56"/>
      <path id="パス_622" data-name="パス 622" d="M567.933,462.9h-2.128a104.293,104.293,0,1,0-208.586,0H355.09a106.422,106.422,0,1,1,212.843,0Z" transform="translate(-189.82 -62.882)" fill="#3f3d56"/>
      <rect id="長方形_192" data-name="長方形 192" width="2.72" height="107.435" transform="matrix(1, -0.002, 0.002, 1, 218.283, 293.066)" fill="#3f3d56"/>
      <path id="パス_623" data-name="パス 623" d="M433.847,373.735c.244,37.567-26.13,68.193-26.13,68.193s-26.768-30.282-27.012-67.849,26.13-68.193,26.13-68.193S433.6,336.168,433.847,373.735Z" transform="translate(-187.718 -67.009)"/>
      <path id="パス_624" data-name="パス 624" d="M433.847,373.735c.244,37.567-26.13,68.193-26.13,68.193s-26.768-30.282-27.012-67.849,26.13-68.193,26.13-68.193S433.6,336.168,433.847,373.735Z" transform="translate(-187.718 -67.009)" opacity="0.1"/>
      <rect id="長方形_193" data-name="長方形 193" width="2.72" height="107.435" transform="matrix(1, -0.002, 0.002, 1, 182.927, 293.133)" fill="#3f3d56"/>
      <path id="パス_625" data-name="パス 625" d="M401.167,373.8c.243,37.567-26.13,68.193-26.13,68.193s-26.768-30.282-27.012-67.849,26.129-68.193,26.129-68.193S400.923,336.229,401.167,373.8Z" transform="translate(-190.394 -67.004)"/>
      <rect id="長方形_194" data-name="長方形 194" width="2.153" height="85.053" transform="translate(364.593 315.664)" fill="#3f3d56"/>
      <path id="パス_626" data-name="パス 626" d="M562.866,390.97c.137,29.741-20.787,53.947-20.787,53.947S520.932,420.9,520.8,391.164s20.787-53.948,20.787-53.948S562.729,361.229,562.866,390.97Z" transform="translate(-176.248 -64.452)" fill="#3f3d56"/>
      <circle id="楕円形_115" data-name="楕円形 115" cx="74.014" cy="74.014" r="74.014" transform="translate(620.608 241.412)" fill="#3f3d56"/>
      <path id="パス_627" data-name="パス 627" d="M781.726,266.171v30.983H736.688l-8.322,9.983.95-9.983h-4.047V266.171Z" transform="translate(-79.689 21.696)" fill="#ebd664"/>
      <rect id="長方形_195" data-name="長方形 195" width="20.311" height="20.311" transform="translate(681.713 298.537)" opacity="0.1"/>
      <path id="パス_628" data-name="パス 628" d="M762.813,280.171h56.458v30.983h-4.049l.951,9.983-8.321-9.983H762.813Z" transform="translate(-76.625 22.837)" fill="#ebd664"/>
      <ellipse id="楕円形_116" data-name="楕円形 116" cx="12.393" cy="1.209" rx="12.393" ry="1.209" transform="translate(636.632 331.399)" opacity="0.1"/>
      <ellipse id="楕円形_117" data-name="楕円形 117" cx="14.114" cy="1.377" rx="14.114" ry="1.377" transform="translate(725.433 347.404)" opacity="0.1"/>
      <path id="パス_629" data-name="パス 629" d="M889.582,106.032H840.673a10.4,10.4,0,0,0-10.143,8.11L805.819,223.755A8.4,8.4,0,0,0,813.6,234l50.278,2.477a11.1,11.1,0,0,0,11.471-9.112l14.018-77.5,1.043.3,2.682-14.689-1.073-.268,3.912-21.632a6.4,6.4,0,0,0-6.352-7.541Z" transform="translate(-152.942 -83.276)" fill="#3f3d56"/>
      <path id="パス_630" data-name="パス 630" d="M846.738,108.216h-5.709a7.184,7.184,0,0,0-7.02,5.653L810.288,222.588a4.452,4.452,0,0,0,4.058,5.392l50.115,3.284a5.766,5.766,0,0,0,6.052-4.731l20.241-112.371a5.05,5.05,0,0,0-4.97-5.945h-5.416a2.384,2.384,0,0,0-2.3,1.764h0a2.1,2.1,0,0,1-2.032,1.557H850.324a3.6,3.6,0,0,1-3.586-3.321Z" transform="translate(-152.568 -83.097)" fill="#ccc"/>
      <circle id="楕円形_118" data-name="楕円形 118" cx="70.826" cy="70.826" r="70.826" transform="translate(211.981 17.666)" fill="#64adeb"/>
      <path id="パス_631" data-name="パス 631" d="M530.624,214.629c-13.6,0-43.628-13.966-70.334-30.324-33.141-20.3-65.327-46.83-59.7-56.017,1.591-2.6,5.533-3.275,12.054-2.078l-.468,2.546c-5.05-.929-8.467-.6-9.379.884-1.33,2.172,1.6,8.476,13.822,19.658,11.135,10.191,27.125,21.839,45.023,32.8s35.54,19.913,49.677,25.2c15.513,5.806,22.461,5.552,23.791,3.382.913-1.491-.356-4.686-3.481-8.768l2.055-1.574c4.037,5.271,5.225,9.1,3.634,11.693C536.223,213.818,533.9,214.629,530.624,214.629Z" transform="translate(-186.145 -81.67)" fill="#3f3d56"/>
      <circle id="楕円形_119" data-name="楕円形 119" cx="14.487" cy="14.487" r="14.487" transform="translate(259.578 37.599)" fill="#fff"/>
      <circle id="楕円形_120" data-name="楕円形 120" cx="9.658" cy="9.658" r="9.658" transform="translate(268.602 121.846)" fill="#fff"/>
      <circle id="楕円形_121" data-name="楕円形 121" cx="9.658" cy="9.658" r="9.658" transform="translate(301.858 88.735)" fill="#fff"/>
      <path id="パス_632" data-name="パス 632" d="M1033.178,676.742H690.5V500.082h342.678Zm-340.55-2.129H1031.05V502.21H692.628Z" transform="translate(-162.376 -51.204)"/>
      <path id="パス_633" data-name="パス 633" d="M1031.211,470.185H688.533V293.525h342.678Zm-340.55-2.128h338.421v-172.4H690.661Z" transform="translate(-162.538 -68.022)"/>
      <path id="パス_634" data-name="パス 634" d="M298.322,808.56c5.81,21.477,25.71,34.778,25.71,34.778s10.48-21.519,4.671-43-25.71-34.778-25.71-34.778S292.512,787.083,298.322,808.56Z" transform="translate(-194.606 -67.38)" fill="#3f3d56"/>
      <path id="パス_635" data-name="パス 635" d="M309.1,802.311c15.942,15.52,17.889,39.376,17.889,39.376s-23.9-1.3-39.843-16.824-17.889-39.376-17.889-39.376S293.155,786.793,309.1,802.311Z" transform="translate(-196.843 -65.747)"/>
      <path id="パス_636" data-name="パス 636" d="M359.1,528.76l-16.99,1.888s-7.551,33.98,0,79.288,16.99,90.615,16.99,90.615,7.551,147.25,11.327,149.137,37.756,13.215,39.644,1.888,1.888-269.957,1.888-269.957l26.429,124.6S442.161,862.9,449.712,862.9s32.093-1.888,32.093-15.1,5.663-186.894,5.663-186.894-1.888-128.371-9.439-132.147S359.1,528.76,359.1,528.76Z" transform="translate(-191.156 -86.924)" fill="#2f2e41"/>
      <path id="パス_637" data-name="パス 637" d="M373.479,820.082s-16.99-1.888-20.766,0-9.439,15.1,0,22.654,33.981,18.878,41.532,18.878,15.1-3.775,15.1-3.775l-3.776-32.093Z" transform="translate(-190.433 -62.98)" fill="#2f2e41"/>
      <path id="パス_638" data-name="パス 638" d="M441.307,829.773,443.2,856.2s24.542,3.775,26.43,0,20.766-13.215,22.654-15.1,3.776-22.653-7.551-24.541-15.1,3.776-15.1,3.776Z" transform="translate(-182.756 -63.232)" fill="#2f2e41"/>
      <path id="パス_639" data-name="パス 639" d="M483.551,332.257s41.273-26.541,40.318-44.776-25.837-75.728-25.837-75.728-19.465-40.469-27.2-23.93S481,221.967,481,221.967l11.559,56.4-31.414,29.969Z" transform="translate(-181.132 -114.722)" fill="#a0616a"/>
      <circle id="楕円形_122" data-name="楕円形 122" cx="33.981" cy="33.981" r="33.981" transform="translate(166.055 115.176)" fill="#a0616a"/>
      <path id="パス_640" data-name="パス 640" d="M371.515,274.794l5.663,35.869,41.532-7.551s-1.888-35.868-1.888-39.644S371.515,274.794,371.515,274.794Z" transform="translate(-188.47 -108.326)" fill="#a0616a"/>
      <path id="パス_641" data-name="パス 641" d="M373.631,307.672s47.2-11.327,52.859-7.551,33.981,7.551,33.981,7.551l32.093,49.083-9.439,62.3s-1.888,100.054,1.888,117.044,24.542,18.878-18.878,22.654-50.971-1.888-81.176,5.664-54.747-3.776-47.2-11.327,20.766-128.371,5.663-139.7-20.766-69.849-20.766-69.849S373.631,317.111,373.631,307.672Z" transform="translate(-192.473 -105.389)" fill="#071822"/>
      <path id="パス_642" data-name="パス 642" d="M444.8,313.564l5.664-5.664,11.327-11.327s36.812,16.046,34.924,21.71-14.159,38.7-14.159,38.7l-16.99,5.663Z" transform="translate(-182.471 -105.581)" fill="#071822"/>
      <path id="パス_643" data-name="パス 643" d="M402.276,217.313l-.348-2.722a21.4,21.4,0,0,0-6.8,1.068,11.175,11.175,0,0,1,.42-4.891,21.75,21.75,0,0,0-6.295,2.737l-1.373-4.968-18.872,9.3c-6.774,3.339-13.917,7.007-17.789,13.492-4.317,7.229-3.566,16.519-.615,24.4s7.855,14.864,11.786,22.31a55.757,55.757,0,0,0,5.356,9.116c7.123,8.88,20.99,10.674,31.033,5.315,3.707-1.978,7.075-4.934,8.6-8.849.912-2.341,1.12-4.888,1.718-7.328,1.243-5.075,2.685-15.549,6.806-18.76,1.814-1.412,5.41,3.27,6.913,1.531,3.862-4.47,3.052-11.365.653-16.764a122.317,122.317,0,0,0-8.053-15.706C414.119,224.573,402.234,216.986,402.276,217.313Z" transform="translate(-190.381 -112.757)" fill="#2f2e41"/>
      <path id="パス_644" data-name="パス 644" d="M297.782,382.069s-45.308,43.42-39.644,66.073,50.971,88.727,50.971,88.727,43.42,22.654,49.083,0-30.205-16.99-30.205-16.99L299.67,451.918l32.093-45.308Z" transform="translate(-197.794 -98.633)" fill="#a0616a"/>
      <path id="パス_645" data-name="パス 645" d="M348.316,343.969l-22.654-3.776s-16.99,18.878-22.654,26.429-16.99,26.429-16.99,26.429l39.644,28.317,30.2-32.093Z" transform="translate(-195.47 -102.028)" fill="#071822"/>
    </g>
  </g>
</svg>
